<svg width="101" height="101" viewBox="0 0 101 101" fill="none" xmlns="http://www.w3.org/2000/svg">
<circle cx="50.6777" cy="50.3447" r="50" fill="#8A0538"/>
<path d="M50.0652 30.953C50.1487 31.1394 53.4042 32.7613 54.5674 30.6836C53.492 29.7212 52.3391 28.8447 51.12 28.0625C51.2982 25.1795 50.2954 25.6427 53.0645 25.6219C53.1014 25.6219 53.1367 25.6076 53.1628 25.5821C53.1888 25.5567 53.2035 25.5222 53.2035 25.4862C53.1612 23.0545 53.6924 23.5297 51.178 23.4979C50.9565 23.4482 51.3349 20.9628 50.9814 21.018C50.8796 21.0717 48.8592 20.8748 48.9443 21.1537C48.8933 21.2098 49.0461 23.5083 48.8867 23.4974C46.3632 23.5406 46.9081 23.0202 46.8607 25.4857C46.8607 25.5216 46.8753 25.556 46.9013 25.5814C46.9272 25.6069 46.9625 25.6212 46.9993 25.6214C49.7673 25.6422 48.766 25.1795 48.9438 28.062C47.7248 28.8441 46.5721 29.7204 45.4968 30.6825C45.4833 30.6949 45.4725 30.7098 45.465 30.7264C45.4574 30.7429 45.4534 30.7608 45.4531 30.7788C45.4529 30.7969 45.4563 30.8149 45.4633 30.8317C45.4703 30.8484 45.4806 30.8637 45.4938 30.8764C47.4291 32.6917 49.6659 31.0857 50.0632 30.9525" fill="white"/>
<path d="M50.0621 36.1234C50.4411 36.3277 54.6035 38.4745 57.7016 35.9996C57.7744 35.5105 57.1159 34.6903 56.3372 33.3651C56.1111 33.2389 43.9643 33.2443 43.7346 33.3651C42.9488 34.6913 42.3086 35.5085 42.3692 35.9996C45.5335 38.5118 49.6012 36.2765 50.0637 36.1239" fill="white"/>
<path d="M55.8645 57.6954C49.2549 61.0169 50.7573 62.7884 50.601 55.0962C50.5582 54.9019 55.6619 52.2092 55.7301 52.0949C55.7504 52.0833 55.7735 52.0772 55.797 52.0771C55.8205 52.0771 55.8436 52.0831 55.864 52.0945C55.8843 52.106 55.9012 52.1225 55.9129 52.1424C55.9247 52.1622 55.9308 52.1848 55.9308 52.2077C55.8615 52.331 56.0601 57.6258 55.8645 57.6959" fill="white"/>
<path d="M44.202 57.6954C50.8117 61.0169 49.3093 62.7884 49.4656 55.0962C49.5089 54.9019 44.4047 52.2092 44.3365 52.0949C44.3162 52.0833 44.2931 52.0772 44.2696 52.0771C44.2461 52.0771 44.223 52.0831 44.2027 52.0945C44.1823 52.106 44.1654 52.1225 44.1536 52.1424C44.1419 52.1622 44.1358 52.1848 44.1358 52.2077C44.2056 52.331 44.0065 57.6258 44.202 57.6959" fill="white"/>
<path d="M59.865 67.0949C59.669 67.0005 50.6977 72.7268 50.602 72.1522C50.6656 72.0398 50.4777 61.8245 50.6677 61.7678C50.8643 61.8617 59.835 56.135 59.9308 56.7106C59.8671 56.8229 60.055 67.0378 59.865 67.0949Z" fill="white"/>
<path d="M40.205 67.0949C40.4011 67.0005 49.3723 72.7268 49.4681 72.1522C49.4044 72.0398 49.5929 61.8245 49.4024 61.7678C49.2058 61.8617 40.2351 56.135 40.1393 56.7106C40.203 56.8229 40.0145 67.0378 40.205 67.0949Z" fill="white"/>
<path d="M78.548 68.5061C74.8703 68.8471 74.4257 63.2301 78.0896 62.9846C81.7672 62.6436 82.2118 68.2605 78.548 68.5061ZM72.9279 58.7634C72.579 55.1746 78.3335 54.7401 78.5851 58.3161C78.9345 61.9049 73.179 62.3394 72.9279 58.7634ZM70.7955 69.4773C67.1178 69.8188 66.6732 64.2014 70.3371 63.9558C74.0147 63.6154 74.4593 69.2323 70.7955 69.4773ZM62.8505 64.7989C62.5138 81.3275 37.4646 81.1894 37.2161 64.6627V48.7723C37.1809 48.4372 62.6264 48.7772 62.7353 48.6594C63.07 48.6281 62.7369 64.6905 62.851 64.7984L62.8505 64.7989ZM43.1066 42.6041C46.8244 43.805 49.6128 41.7884 50.0661 41.6139C50.3396 42.0215 53.73 43.5525 57.0088 42.704L50.1929 46.9246C50.1452 46.954 50.0899 46.9695 50.0335 46.9695C49.9771 46.9695 49.9219 46.954 49.8741 46.9246C49.9215 46.8322 42.6849 42.709 43.1071 42.6036L43.1066 42.6041ZM32.3309 66.4914C32.6802 70.0808 26.9252 70.5152 26.6736 66.9388C26.3248 63.3499 32.0798 62.916 32.3309 66.4914ZM24.5387 61.2985C20.861 61.6395 20.4164 56.0226 24.0803 55.777C27.7579 55.4365 28.2025 61.0535 24.5387 61.2985ZM21.9774 68.5061C18.2998 68.8471 17.8552 63.2296 21.5191 62.9846C25.1967 62.6436 25.6413 68.261 21.9774 68.5061ZM32.1969 41.1328C32.1078 41.1765 31.3678 42.5107 31.2089 42.3257C31.1616 42.3257 29.8201 41.3057 29.788 41.431L28.1002 43.809C28.0192 44.0441 26.8427 43.0331 26.7454 43.0301C26.4567 43.0092 28.4292 40.5567 28.4042 40.495C28.4129 40.4827 28.4162 40.4675 28.4134 40.4528C28.4107 40.4381 28.402 40.425 28.3895 40.4165L27.049 39.5098C26.8106 39.4333 27.843 38.2811 27.8471 38.1881C28.008 37.9396 29.2629 39.1862 29.4284 39.052C29.6128 38.9069 30.5621 37.1974 30.7989 37.3192L31.9932 38.1265C32.1292 38.2145 31.9423 38.375 31.8965 38.4605C30.7393 40.3494 30.1919 39.6425 32.1679 40.9722C32.1804 40.9807 32.191 40.9914 32.1993 41.0039C32.2075 41.0164 32.2131 41.0303 32.2158 41.0449C32.2185 41.0595 32.2182 41.0744 32.215 41.0889C32.2117 41.1034 32.2056 41.1171 32.1969 41.1293V41.1328ZM67.8945 40.9722C69.8757 39.642 69.3175 40.3479 68.166 38.4605C68.1232 38.3815 67.9297 38.212 68.0692 38.1265L69.2635 37.3187C69.4952 37.189 70.4527 38.9094 70.634 39.0515C70.6427 39.0637 70.6561 39.072 70.6711 39.0746C70.686 39.0772 70.7015 39.0739 70.714 39.0654L72.055 38.1593C72.221 37.9754 72.9493 39.3135 73.043 39.3523C73.2248 39.5874 71.5874 40.2967 71.6587 40.4955L73.3465 42.8735C73.5426 43.0296 72.1599 43.7503 72.1242 43.8378C72.0025 44.0943 70.3417 41.43 70.276 41.4315C70.1084 41.2968 68.8576 42.543 68.6941 42.2954C68.6834 42.196 67.6643 41.0527 67.896 40.9732L67.8945 40.9722ZM41.4554 38.8184C41.1539 37.2233 34.2825 33.3655 33.0694 32.3565C31.4345 31.2201 29.6469 32.3917 28.8656 33.9148C28.7913 33.9376 25.9504 31.9494 25.9291 32.2302C24.2606 34.8329 24.3961 33.5758 27.5491 35.7699C27.5812 35.9249 21.2517 44.2698 21.5394 44.4323C21.6968 44.4095 28.4246 49.3409 28.5916 49.065L36.1552 38.4277C36.8326 37.5394 38.2031 37.5071 39.1529 38.1498C39.923 38.6146 40.6095 40.1963 39.8873 40.7386L37.3408 39.1634C37.3156 39.1478 37.2852 39.1424 37.2559 39.1482C37.2267 39.1541 37.2009 39.1707 37.184 39.1947L35.9973 40.8638C35.7778 41.1238 45.4346 46.7139 45.4661 46.8665C45.568 47.2641 35.4794 46.6677 35.4839 47.0827V56.0037C35.5018 56.0817 28.911 60.0747 28.8824 60.1224C29.6703 57.4581 27.8827 54.0288 24.6232 53.914C20.5488 53.5735 18.2621 58.2803 20.4042 61.3015C19.3663 61.6007 18.4643 62.2368 17.8474 63.1046C17.2304 63.9724 16.9356 65.0198 17.0118 66.0734C17.2089 70.1752 22.6787 71.6968 25.3199 68.9117C27.382 73.016 34.311 71.4751 34.2504 66.8041C34.2723 65.6687 33.8664 64.565 33.1097 63.7023C32.353 62.8397 31.2983 62.2781 30.1455 62.1241C29.8435 61.978 35.4162 58.8529 35.3963 58.7555C34.831 69.105 37.6541 78.2154 49.9826 78.9998C62.5306 78.2363 65.2171 69.2417 64.6707 58.756C75.1306 65.1682 66.5041 59.0691 65.8171 66.8051C65.7422 71.4626 72.7013 73.0289 74.7471 68.9122C75.7489 69.6936 77.07 70.5525 78.6447 70.3706C83.8553 70.0788 84.63 62.6297 79.6633 61.301C81.7173 58.3842 79.6704 53.823 75.7509 53.9036C72.3193 53.824 70.3794 57.3184 71.1851 60.1224C71.1515 60.0727 64.5668 56.0832 64.5831 56.0037V47.0822C64.6019 46.7532 54.7537 47.0822 54.6314 46.9694C54.3259 46.6821 64.3081 41.2193 64.0697 40.8638C62.2709 38.3492 63.3567 39.0137 60.1822 40.7386C59.4692 40.1918 60.1349 38.625 60.9161 38.1503C61.866 37.5076 63.2365 37.5399 63.9138 38.4282L71.4769 49.0655C71.6445 49.3414 78.3722 44.41 78.5296 44.4338C78.5547 44.4167 78.5718 44.3905 78.5773 44.3611C78.5827 44.3317 78.576 44.3014 78.5586 44.2767C78.5459 44.2037 72.4384 35.8186 72.5714 35.7395L75.2197 34.0992C75.2455 34.0831 75.2636 34.0577 75.2703 34.0286C75.277 33.9994 75.2716 33.9689 75.2554 33.9436L74.1415 32.2302C74.2505 31.8644 71.2269 33.9739 71.2523 33.8859C70.2047 32.437 68.9355 31.1784 67.0017 32.3565C65.8395 33.4435 58.9457 37.0692 58.7246 38.7379C58.7129 38.9625 41.5522 38.7448 41.4554 38.8184Z" fill="white"/>
</svg>
