<svg width="160" height="65" viewBox="0 0 160 65" fill="none" xmlns="http://www.w3.org/2000/svg">
<g clip-path="url(#clip0_11087_22157)">
<path d="M13.14 52.4471L13.3796 52.9053C13.0609 53.0764 12.9961 53.3316 13.14 53.6073C13.2963 53.9056 13.5513 53.9589 13.8012 53.8287C14.4212 53.5069 13.7755 52.1858 14.703 51.7031C15.1533 51.4684 15.6643 51.6221 15.9389 52.1458C16.2186 52.6788 16.0417 53.1779 15.5183 53.4669L15.2788 53.0088C15.5728 52.8448 15.6345 52.6152 15.5081 52.3744C15.3754 52.1212 15.1564 52.0485 14.9333 52.1643C14.3225 52.482 15.0063 53.7887 14.0387 54.292C13.575 54.5328 13.0084 54.4149 12.703 53.8328C12.4141 53.2814 12.5714 52.7474 13.14 52.4461V52.4471Z" fill="#863BFF"/>
<path d="M14.4425 54.715L15.6373 53.8992C16.2265 53.4974 16.7704 53.6061 17.12 54.1144C17.4809 54.6402 17.3781 55.166 16.8188 55.5841L16.535 55.1701C16.8578 54.9128 16.9093 54.6597 16.719 54.3819C16.5514 54.138 16.2789 54.0867 15.9304 54.3245L14.7345 55.1403C14.3901 55.375 14.3387 55.6466 14.5124 55.8998C14.7057 56.1816 14.9659 56.2226 15.3175 56.0248L15.6013 56.4389C15.0091 56.8007 14.4806 56.7054 14.1135 56.1714C13.7639 55.662 13.8564 55.1137 14.4415 54.714L14.4425 54.715Z" fill="#863BFF"/>
<path d="M18.26 55.6911L15.5702 57.9551L15.2422 57.5687L17.932 55.3047L18.26 55.6911Z" fill="#863BFF"/>
<path d="M17.8094 59.5515L17.4783 59.8949L16.1992 58.6681L18.6402 56.1396L19.8834 57.3316L19.5523 57.6749L18.6752 56.8335L17.9668 57.5663L18.7749 58.3411L18.451 58.6773L17.6429 57.9025L16.8964 58.6752L17.8094 59.5515Z" fill="#863BFF"/>
<path d="M21.9053 58.7951L19.8838 61.6689L19.4674 61.3779L19.8149 59.5208C19.8787 59.2471 19.9702 58.8638 20.0298 58.6301H20.0113C19.8376 58.9376 19.5558 59.3824 19.3646 59.654L18.5852 60.7629L18.1729 60.4749L20.1944 57.6001L20.6108 57.8912L20.2437 59.82C20.1944 60.0732 20.1142 60.4155 20.0627 60.6369H20.0813C20.2478 60.3314 20.5254 59.8825 20.7054 59.6284L21.494 58.5071L21.9053 58.7951Z" fill="#863BFF"/>
<path d="M23.693 60.2417L23.0359 59.9137L21.6766 62.6215L21.2129 62.3909L22.5722 59.6831L21.9203 59.3582L22.1362 58.9277L23.9079 59.8112L23.692 60.2417H23.693Z" fill="#863BFF"/>
<path d="M24.6768 60.0858L23.4017 63.3573L22.9277 63.1738L24.2027 59.9023L24.6768 60.0858Z" fill="#863BFF"/>
<path d="M25.726 63.352L24.8304 63.0989L24.4818 63.7353L23.9688 63.5898L25.7826 60.4536L26.31 60.6033L26.2 64.2211L25.6921 64.0777L25.726 63.352ZM25.7538 62.8703L25.799 61.9028C25.8134 61.6671 25.8525 61.3289 25.8792 61.1434L25.8648 61.1393C25.7897 61.3104 25.6499 61.6199 25.5327 61.827L25.0659 62.6756L25.7527 62.8703H25.7538Z" fill="#863BFF"/>
<path d="M27.2321 63.9073L26.718 65.0009L26.4219 64.9415L26.7581 63.812L27.2311 63.9073H27.2321Z" fill="#863BFF"/>
<path d="M28.961 61.1548L29.4916 61.2009L29.7424 63.1656C29.7856 63.4813 29.8103 63.8257 29.836 64.1096L29.8556 64.1116C29.9306 63.8359 30.0201 63.5018 30.1126 63.1984L30.708 61.3075L31.2344 61.3536L30.0643 64.7747L29.5132 64.7265L28.96 61.1548H28.961Z" fill="#863BFF"/>
<path d="M32.0413 61.3512L32.0207 64.8605L31.5127 64.8574L31.5333 61.3481L32.0413 61.3512Z" fill="#863BFF"/>
<path d="M34.4452 61.7859L33.711 61.8125L33.821 64.839L33.3028 64.8575L33.1928 61.8309L32.4638 61.8576L32.4463 61.3769L34.4267 61.3052L34.4441 61.7859H34.4452Z" fill="#863BFF"/>
<path d="M36.2232 63.9118L35.2998 64.0256L35.2268 64.7471L34.6973 64.8117L35.1456 61.2204L35.6895 61.1538L36.9985 64.5298L36.4741 64.5944L36.2221 63.9128L36.2232 63.9118ZM36.0607 63.4568L35.7255 62.5477C35.6474 62.3253 35.5507 61.9983 35.5034 61.8169L35.488 61.819C35.4859 62.0065 35.4767 62.3458 35.4499 62.5815L35.3512 63.5439L36.0607 63.4568Z" fill="#863BFF"/>
<path d="M40.4142 63.1429L40.554 63.598L38.8564 64.1155L37.8271 60.76L39.4764 60.2578L39.6163 60.7129L38.4523 61.0675L38.7505 62.0411L39.8229 61.7142L39.9597 62.16L38.8873 62.487L39.2019 63.5129L40.4142 63.1439V63.1429Z" fill="#863BFF"/>
<path d="M41.6456 59.8151L40.9783 60.1205L42.245 62.8734L41.7741 63.0886L40.5073 60.3357L39.8441 60.6391L39.6426 60.2015L41.444 59.3774L41.6456 59.8151Z" fill="#863BFF"/>
<path d="M43.2232 58.781L43.8536 59.6193L44.7029 58.9849L44.9805 59.3539L44.1312 59.9883L45.0484 61.2079L44.6422 61.5113L42.5312 58.7021L43.8597 57.71L44.1466 58.0912L43.2243 58.78L43.2232 58.781Z" fill="#863BFF"/>
<path d="M44.4747 57.1094L46.8859 59.6665L46.5157 60.0129L44.1045 57.4558L44.4747 57.1094Z" fill="#863BFF"/>
<path d="M44.8887 56.7282L45.4501 56.059C45.8891 55.5353 46.4557 55.485 46.9883 55.9288L48.0001 56.7713C48.5368 57.2181 48.5913 57.7859 48.1564 58.3056L47.5919 58.9789L44.8897 56.7282H44.8887ZM47.7852 57.9971C48.0176 57.7203 47.9836 57.4241 47.6628 57.1566L46.6665 56.3275C46.3498 56.0641 46.0588 56.0825 45.8233 56.3634L45.5848 56.6483L47.5456 58.281L47.7842 57.996L47.7852 57.9971Z" fill="#863BFF"/>
<path d="M49.9113 54.9522L50.3175 55.2033L49.3828 56.7078L46.3896 54.8599L47.2986 53.3984L47.7048 53.6495L47.0642 54.6806L47.932 55.2166L48.5222 54.2665L48.9201 54.5115L48.3299 55.4616L49.245 56.0263L49.9124 54.9522H49.9113Z" fill="#863BFF"/>
<path d="M49.7306 54.2641L49.9496 53.7957C50.2797 53.9433 50.5223 53.8408 50.6539 53.559C50.7958 53.2546 50.6837 53.0199 50.4287 52.901C49.7954 52.6068 49.1363 53.9208 48.1882 53.4811C47.7276 53.2669 47.5384 52.7698 47.7893 52.2338C48.0443 51.6885 48.5481 51.5246 49.0972 51.7623L48.8782 52.2307C48.5687 52.0975 48.3486 52.1887 48.2335 52.4347C48.1121 52.694 48.1882 52.9112 48.4165 53.0168C49.0406 53.3068 49.6658 51.9714 50.655 52.4306C51.129 52.6509 51.3799 53.1705 51.1012 53.766C50.838 54.3297 50.3167 54.5296 49.7316 54.2631L49.7306 54.2641Z" fill="#863BFF"/>
<path d="M31.9202 9.79289C32.2112 9.99377 34.4723 11.4594 36.2686 9.71705C36.3221 9.66478 36.32 9.57766 36.2655 9.52642C35.8995 9.18205 34.5545 7.95935 32.9639 6.9898C32.9474 6.97955 32.9371 6.96213 32.9371 6.94265V4.59154C32.9371 4.56079 32.9618 4.53619 32.9927 4.53619H34.8136C34.8877 4.53619 34.9473 4.47675 34.9473 4.40296V2.57864C34.9473 2.50485 34.8877 2.4454 34.8136 2.4454H32.9927C32.9618 2.4454 32.9371 2.42081 32.9371 2.39006V0.133237C32.9371 0.059444 32.8775 0 32.8035 0H30.9732C30.8992 0 30.8395 0.059444 30.8395 0.133237V2.38904C30.8395 2.41978 30.8149 2.44438 30.784 2.44438H28.963C28.889 2.44438 28.8293 2.50382 28.8293 2.57762V4.40193C28.8293 4.47573 28.889 4.53517 28.963 4.53517H30.784C30.8149 4.53517 30.8395 4.55977 30.8395 4.59051V6.94163C30.8395 6.9611 30.8293 6.97852 30.8128 6.98877C29.2232 7.95833 27.8793 9.18 27.5122 9.52539C27.4577 9.57664 27.4546 9.66375 27.5091 9.71705C29.3054 11.4583 31.5665 9.99275 31.8575 9.79187C31.876 9.77854 31.9007 9.77854 31.9202 9.79187V9.79289Z" fill="#863BFF"/>
<path d="M31.9161 14.8908C32.2822 15.0917 36.2995 17.2092 39.2896 14.7689C39.3359 14.731 39.3513 14.6664 39.3266 14.6121C39.1929 14.3159 38.7344 13.3402 37.9714 12.1728C37.9467 12.1349 37.9035 12.1113 37.8583 12.1113H25.9185C25.8732 12.1113 25.83 12.1349 25.8054 12.1728C25.0434 13.3402 24.5838 14.3159 24.4502 14.6121C24.4255 14.6664 24.4409 14.731 24.4872 14.7689C27.4773 17.2092 31.4956 15.0917 31.8606 14.8908C31.8771 14.8816 31.8976 14.8816 31.9141 14.8908H31.9161Z" fill="#863BFF"/>
<path d="M37.518 36.1581L32.6308 39.0063C32.5455 39.0566 32.4375 38.9951 32.4375 38.8956V33.5959C32.4375 33.5498 32.4622 33.5078 32.5012 33.4852L37.3884 30.637C37.4738 30.5868 37.5817 30.6483 37.5817 30.7477V36.0475C37.5817 36.0936 37.5571 36.1356 37.518 36.1581Z" fill="#863BFF"/>
<path d="M26.26 36.1581L31.1472 39.0063C31.2326 39.0566 31.3405 38.9951 31.3405 38.8956V33.5959C31.3405 33.5498 31.3159 33.5078 31.2768 33.4852L26.3896 30.637C26.3043 30.5868 26.1963 30.6483 26.1963 30.7477V36.0475C26.1963 36.0936 26.221 36.1356 26.26 36.1581Z" fill="#863BFF"/>
<path d="M41.3791 45.4253L32.6298 50.5222C32.5445 50.5724 32.4365 50.5109 32.4365 50.4115V40.2845C32.4365 40.2383 32.4612 40.1963 32.5003 40.1738L41.2495 35.077C41.3348 35.0267 41.4428 35.0882 41.4428 35.1876V45.3147C41.4428 45.3608 41.4181 45.4028 41.3791 45.4253Z" fill="#863BFF"/>
<path d="M22.3987 45.4253L31.1479 50.5222C31.2333 50.5724 31.3412 50.5109 31.3412 50.4115V40.2845C31.3412 40.2383 31.3166 40.1963 31.2775 40.1738L22.5283 35.077C22.4429 35.0267 22.335 35.0882 22.335 35.1876V45.3147C22.335 45.3608 22.3596 45.4028 22.3987 45.4253Z" fill="#863BFF"/>
<path d="M23.6059 17.5473C23.5566 17.5473 23.5144 17.5155 23.5 17.4684C23.3098 16.8524 22.9191 16.2928 22.3464 15.8972L15.5107 11.1765C14.395 10.4058 12.864 10.6825 12.0908 11.7956L11.4522 12.7139L8.77163 11.0187C8.71919 10.9859 8.6503 11.0013 8.61739 11.0525L7.54186 12.7415C7.50896 12.7938 7.52438 12.8625 7.5758 12.8953L10.1803 14.5423L4.35126 22.928C4.3163 22.9782 4.32864 23.0479 4.37902 23.0827L11.0327 27.6774C11.0831 27.7122 11.153 27.6999 11.188 27.6497L18.4895 17.1629C19.1434 16.2867 20.4667 16.2549 21.3829 16.8883C22.2055 17.4561 22.5294 18.4707 22.259 19.3767C22.2374 19.4485 22.1541 19.4802 22.0913 19.4403L19.6359 17.8875C19.5855 17.8558 19.5187 17.8691 19.4848 17.9183L18.3393 19.5643C18.3033 19.6165 18.3177 19.6873 18.3712 19.7211L27.4803 25.481C27.5276 25.5107 27.506 25.5835 27.4505 25.5835H17.9548C17.8931 25.5835 17.8437 25.6337 17.8437 25.6942V34.4888C17.8437 34.5083 17.8345 34.5257 17.818 34.536L11.4707 38.5495C11.4255 38.5782 11.371 38.5341 11.3885 38.4839C11.591 37.9007 11.6805 37.2642 11.6239 36.6001C11.4358 34.3648 9.6045 32.5733 7.35884 32.4288C4.68955 32.2576 2.47165 34.3648 2.47165 36.9886C2.47165 37.9725 2.78423 38.8826 3.3148 39.6287C3.33639 39.6594 3.322 39.7015 3.28601 39.7127C1.28918 40.299 -0.141087 42.2043 0.0110915 44.417C0.166355 46.6769 2.00175 48.5022 4.269 48.6539C5.72086 48.7503 7.04009 48.1733 7.94287 47.2047C7.96858 47.1771 8.01382 47.1822 8.0313 47.216C8.83435 48.7011 10.4353 49.6932 12.2625 49.6173C14.6665 49.5179 16.6078 47.5358 16.652 45.1385C16.6952 42.7864 14.9554 40.8299 12.6892 40.5244C12.6368 40.5173 12.6213 40.4507 12.6655 40.423L17.7574 37.2038C17.7944 37.1802 17.8427 37.2069 17.8427 37.2509V43.0108C17.8427 50.7478 24.0758 57.135 31.838 57.1626C39.6176 57.1893 45.933 50.9118 45.933 43.1636V37.2509C45.933 37.2069 45.9813 37.1802 46.0183 37.2038L51.1101 40.423C51.1543 40.4507 51.1389 40.5173 51.0865 40.5244C48.8202 40.8299 47.0805 42.7864 47.1237 45.1385C47.1679 47.5358 49.1092 49.5189 51.5132 49.6173C53.3404 49.6921 54.9423 48.7001 55.7444 47.216C55.7629 47.1822 55.8071 47.1771 55.8328 47.2047C56.7356 48.1733 58.0548 48.7503 59.5067 48.6539C61.7739 48.5022 63.6093 46.6769 63.7646 44.417C63.9168 42.2032 62.4865 40.299 60.4897 39.7117C60.4537 39.7015 60.4382 39.6594 60.4609 39.6277C60.9832 38.8938 61.2937 37.9991 61.304 37.0326C61.3287 34.5114 59.2434 32.4155 56.714 32.4185C54.1845 32.4216 52.1353 34.4663 52.1353 36.9886C52.1353 37.5123 52.2247 38.0155 52.3882 38.4839C52.4057 38.5341 52.3512 38.5782 52.306 38.5495L45.9587 34.536C45.9422 34.5257 45.933 34.5083 45.933 34.4888V25.6942C45.933 25.6327 45.8826 25.5835 45.8219 25.5835H36.3262C36.2707 25.5835 36.2491 25.5107 36.2964 25.481L45.4055 19.7211C45.459 19.6873 45.4733 19.6155 45.4374 19.5643L44.2919 17.9183C44.258 17.8691 44.1911 17.8558 44.1408 17.8875L41.6853 19.4403C41.6226 19.4802 41.5393 19.4474 41.5177 19.3767C41.2473 18.4707 41.5712 17.4561 42.3938 16.8883C43.311 16.2549 44.6333 16.2867 45.2872 17.1629L52.5887 27.6497C52.6237 27.6999 52.6936 27.7122 52.744 27.6774L59.3977 23.0827C59.4481 23.0479 59.4604 22.9782 59.4254 22.928L53.6293 14.5894C53.6108 14.5638 53.619 14.5279 53.6457 14.5105L56.2019 12.8942C56.2544 12.8615 56.2698 12.7928 56.2359 12.7405L55.1603 11.0515C55.1274 10.9992 55.0585 10.9838 55.0061 11.0177L52.3707 12.6841C52.345 12.7005 52.3121 12.6934 52.2946 12.6688L51.687 11.7945C50.9137 10.6825 49.3827 10.4058 48.2671 11.1755L41.4314 15.8962C40.8586 16.2918 40.4679 16.8514 40.2777 17.4673C40.2633 17.5145 40.2211 17.5463 40.1718 17.5463H23.6059V17.5473ZM49.1339 19.675L50.4284 18.7813C50.4541 18.7638 50.4603 18.729 50.4428 18.7044L49.3961 17.1988L49.2747 17.0236C49.2398 16.9733 49.2521 16.9036 49.3025 16.8688L50.4551 16.0725C50.5055 16.0376 50.5754 16.0499 50.6104 16.1001L50.7698 16.3287L51.7785 17.7799C51.796 17.8056 51.8309 17.8117 51.8556 17.7943L53.1501 16.9006C53.2005 16.8657 53.2704 16.878 53.3054 16.9282L54.1043 18.0772C54.1393 18.1274 54.1269 18.1971 54.0766 18.2319L52.782 19.1256C52.7563 19.143 52.7501 19.1779 52.7676 19.2025L54.3974 21.5464C54.4323 21.5966 54.42 21.6663 54.3696 21.7012L53.217 22.4975C53.1666 22.5324 53.0967 22.5201 53.0617 22.4699L51.432 20.1259C51.4145 20.1003 51.3795 20.0941 51.3548 20.1116L50.0603 21.0053C50.0099 21.0401 49.94 21.0278 49.905 20.9776L49.1061 19.8287C49.0711 19.7785 49.0835 19.7088 49.1339 19.6739V19.675ZM14.6727 19.8297L13.8737 20.9786C13.8388 21.0289 13.7688 21.0412 13.7185 21.0063L12.4239 20.1126C12.3982 20.0952 12.3643 20.1013 12.3468 20.1269L10.717 22.4709C10.6821 22.5211 10.6122 22.5334 10.5618 22.4986L9.40913 21.7022C9.35875 21.6674 9.34641 21.5977 9.38137 21.5475L11.0111 19.2035C11.0286 19.1779 11.0224 19.1441 10.9967 19.1266L9.70218 18.2329C9.6518 18.1981 9.63946 18.1284 9.67442 18.0782L10.4734 16.9293C10.5083 16.879 10.5782 16.8667 10.6286 16.9016L11.9232 17.7953C11.9489 17.8127 11.9828 17.8066 12.0003 17.781L13.009 16.3297L13.1684 16.1012C13.2033 16.0509 13.2732 16.0386 13.3236 16.0735L14.4763 16.8698C14.5266 16.9047 14.54 16.9744 14.504 17.0246L14.3827 17.1998L13.336 18.7054C13.3185 18.731 13.3246 18.7649 13.3503 18.7823L14.6449 19.676C14.6953 19.7108 14.7076 19.7805 14.6727 19.8308V19.8297ZM4.80677 46.8163C3.11841 46.9485 1.72104 45.5557 1.85368 43.8728C1.95856 42.5496 3.03409 41.4766 4.36257 41.372C6.05093 41.2398 7.4483 42.6327 7.31565 44.3155C7.21077 45.6387 6.13524 46.7118 4.80677 46.8163ZM7.27864 39.7107C5.59028 39.8429 4.19291 38.4501 4.32555 36.7672C4.43043 35.444 5.50596 34.371 6.83444 34.2675C8.5228 34.1352 9.92017 35.5281 9.78752 37.211C9.68264 38.5341 8.60711 39.6072 7.27864 39.7107ZM14.7991 44.83C14.9318 46.5129 13.5344 47.9058 11.846 47.7735C10.5186 47.669 9.44204 46.597 9.33716 45.2728C9.20452 43.5899 10.6019 42.1971 12.2902 42.3293C13.6177 42.4338 14.6942 43.5059 14.7991 44.83ZM25.2018 21.2789C28.7029 22.4319 31.5295 20.5349 31.8565 20.3022C31.876 20.2889 31.9007 20.2889 31.9202 20.3022C32.2482 20.5349 35.0748 22.4309 38.5749 21.2789C38.6377 21.2584 38.6778 21.3425 38.6222 21.3783L32.0426 25.5394C31.9963 25.5681 31.9428 25.5835 31.8883 25.5835C31.8338 25.5835 31.7804 25.5681 31.7341 25.5394L25.1545 21.3783C25.0989 21.3435 25.139 21.2584 25.2018 21.2789ZM44.2621 43.1605C44.2621 49.9863 38.6983 55.5177 31.8452 55.4931C25.0064 55.4695 19.5156 49.8428 19.5156 43.0262V27.3596C19.5156 27.2982 19.566 27.249 19.6267 27.249H44.15C44.2117 27.249 44.2611 27.2992 44.2611 27.3596V43.1595L44.2621 43.1605ZM51.9317 47.7735C50.2433 47.9058 48.846 46.5129 48.9786 44.83C49.0835 43.5069 50.159 42.4338 51.4875 42.3293C53.1758 42.1971 54.5732 43.5899 54.4406 45.2728C54.3357 46.5959 53.2602 47.669 51.9317 47.7735ZM53.9902 37.2099C53.8576 35.527 55.2549 34.1342 56.9433 34.2664C58.2707 34.371 59.3473 35.443 59.4522 36.7672C59.5848 38.4501 58.1874 39.8429 56.4991 39.7107C55.1716 39.6061 54.0951 38.5341 53.9902 37.2099ZM59.4152 46.8163C57.7268 46.9485 56.3294 45.5557 56.4621 43.8728C56.5669 42.5496 57.6425 41.4766 58.971 41.372C60.6593 41.2398 62.0567 42.6327 61.924 44.3155C61.8192 45.6387 60.7436 46.7118 59.4152 46.8163Z" fill="#863BFF"/>
<path d="M74.8799 38.5371V20.335H81.7372C85.5982 20.335 88.468 22.9935 88.468 26.5879C88.468 30.1822 85.5982 32.7649 81.7372 32.7649H79.5789V38.5371H74.8799ZM79.5789 28.4111H81.6611C82.9309 28.4111 83.6672 27.6015 83.6672 26.5633C83.6672 25.525 82.9052 24.6897 81.6611 24.6897H79.5789V28.4111Z" fill="#863BFF"/>
<path d="M90.0938 30.2334V20.335H94.8175V30.2334C94.8175 32.6132 96.4688 34.3351 98.6775 34.3351C100.886 34.3351 102.563 32.5886 102.563 30.2334V20.335H107.262V30.2334C107.262 35.1191 103.605 38.739 98.6775 38.739C93.7502 38.739 90.0928 35.1191 90.0928 30.2334H90.0938Z" fill="#863BFF"/>
<path d="M109.193 29.424C109.193 24.1837 113.257 20.1333 118.794 20.1333C123.619 20.1333 127.149 23.3484 127.734 27.6263H123.035C122.477 25.8799 120.978 24.5383 118.794 24.5383C116 24.5383 114.095 26.665 114.095 29.424C114.095 32.183 116.025 34.3353 118.794 34.3353C120.978 34.3353 122.502 33.0193 123.01 31.2473H127.759C127.125 35.6021 123.619 38.7403 118.794 38.7403C113.308 38.7403 109.193 34.7155 109.193 29.424Z" fill="#863BFF"/>
<path d="M130.045 38.5371V20.335H136.902C140.763 20.335 143.633 22.9935 143.633 26.5879C143.633 30.1822 140.763 32.7649 136.902 32.7649H134.744V38.5371H130.045ZM134.744 28.4111H136.826C138.096 28.4111 138.832 27.6015 138.832 26.5633C138.832 25.525 138.07 24.6897 136.826 24.6897H134.744V28.4111Z" fill="#863BFF"/>
<path d="M145.74 38.5371V20.335H152.496C156.305 20.335 159.201 23.0181 159.201 26.4362C159.201 28.6643 157.957 30.5378 156.026 31.575L159.429 38.5371H154.324L151.606 32.4615H150.413V38.5371H145.739H145.74ZM150.414 28.5628H152.268C153.639 28.5628 154.503 27.7275 154.503 26.512C154.503 25.2965 153.613 24.5124 152.243 24.5124H150.415V28.5628H150.414Z" fill="#863BFF"/>
<path d="M81.1109 52.4L81.1665 53.1707C81.1901 53.4064 81.1983 53.5653 81.1983 53.6473L81.0554 53.6739C80.8271 53.1615 80.5434 52.7781 80.2092 52.5178C79.8699 52.2626 79.4555 52.1335 78.9691 52.1335C78.3717 52.1335 77.9059 52.2083 77.5759 52.3528C77.0947 52.5598 76.6823 52.9165 76.3389 53.4249C75.9965 53.9394 75.8238 54.5522 75.8238 55.2717C75.8238 55.6878 75.8865 56.0629 76.0119 56.3919C76.1394 56.725 76.3142 57.0304 76.5456 57.3195C76.7739 57.6054 77.0463 57.8545 77.3558 58.0615C77.5594 58.2019 77.8041 58.3044 78.0869 58.3772C78.2432 58.4161 78.4817 58.4346 78.7984 58.4346C79.001 58.4346 79.2293 58.4079 79.4771 58.3464C79.7239 58.29 79.91 58.2132 80.0323 58.1148C80.1588 58.0236 80.2441 57.9108 80.2914 57.7858C80.3346 57.6659 80.3593 57.4302 80.3593 57.0776C80.3593 56.4954 80.3202 56.1531 80.2421 56.0568C80.1629 55.9553 79.9182 55.8979 79.5048 55.8651L79.3023 55.8508L79.1655 55.8549C79.1419 55.8508 79.1172 55.8477 79.0822 55.8436L79.0031 55.7134C79.0031 55.7001 79.0205 55.6766 79.0411 55.6479C79.219 55.6202 79.6015 55.6069 80.1927 55.6069C80.3243 55.6069 80.5382 55.612 80.8395 55.6151L81.3608 55.6397L81.8369 55.6356C81.9284 55.6356 82.0374 55.6397 82.1669 55.6448C82.1937 55.6479 82.204 55.652 82.2101 55.6602C82.2194 55.6714 82.2204 55.6858 82.2204 55.7032C82.2204 55.7421 82.2132 55.7883 82.1978 55.8487C82.0507 55.8795 81.9438 55.8938 81.8646 55.8938L81.5346 55.8887C81.4204 55.8887 81.333 55.9266 81.2641 56.0045C81.2292 56.0435 81.2127 56.1675 81.2127 56.3858L81.2158 57.053C81.2158 57.506 81.2035 57.796 81.1634 57.9221C81.1428 57.9969 81.0986 58.0635 81.0348 58.122C80.9721 58.1814 80.8343 58.2511 80.6297 58.3351C80.3336 58.452 80.0642 58.534 79.8246 58.5709C79.3763 58.6508 78.9414 58.6877 78.527 58.6877C77.8556 58.6877 77.3034 58.6026 76.8726 58.4325C76.4448 58.2665 76.0757 58.0266 75.7652 57.7233C75.4567 57.4179 75.2346 57.1094 75.102 56.7978C74.8994 56.3407 74.8027 55.8774 74.8027 55.4019C74.8027 54.8105 74.959 54.2335 75.2716 53.6626C75.5821 53.1 76.0921 52.6367 76.7913 52.2811C77.2828 52.0341 77.9502 51.9121 78.7974 51.9121C79.3794 51.9121 79.8586 51.9562 80.2267 52.0597C80.5989 52.1601 80.895 52.2739 81.112 52.4041M82.6481 58.4059C83.1407 58.3485 83.4183 58.3075 83.4841 58.2829C83.5273 58.2654 83.5694 58.2203 83.6044 58.1343V58.0748C83.6044 57.9918 83.6209 57.6854 83.6486 57.1596C83.6548 57.011 83.6568 56.8613 83.6568 56.723L83.6404 56.1162L83.6517 55.4347L83.6476 54.1628L83.6517 53.2506C83.6538 52.8663 83.6239 52.6306 83.5622 52.5486C83.4985 52.4604 83.336 52.3989 83.079 52.3661C82.8127 52.3303 82.6708 52.3016 82.642 52.2872C82.6142 52.2698 82.6008 52.2431 82.6008 52.2083C82.6008 52.1827 82.607 52.154 82.6183 52.114C82.6512 52.0843 82.7304 52.0669 82.8538 52.0669C82.8692 52.0669 82.9155 52.0597 82.9926 52.0525C83.0687 52.0443 83.1407 52.0402 83.2065 52.0402H83.6239L84.9648 52.0259C85.7226 52.0259 86.2511 52.0812 86.5565 52.1909C86.8577 52.3026 87.0973 52.4943 87.2772 52.7576C87.4572 53.019 87.5487 53.3224 87.5487 53.6462C87.5487 54.2694 87.2186 54.7459 86.5688 55.0678C86.4588 55.1323 86.3673 55.1774 86.3056 55.2246C86.4197 55.4695 86.577 55.7637 86.7847 56.1019L87.4325 57.2057C87.6875 57.6126 87.8664 57.8688 87.9662 57.9713C88.0638 58.0758 88.1852 58.1589 88.326 58.2286C88.4649 58.2921 88.7024 58.3587 89.0376 58.4223C89.0386 58.454 89.0386 58.4817 89.0386 58.5012C89.0386 58.5237 89.0386 58.5473 89.0376 58.576C88.5718 58.5842 88.0268 58.5842 87.4006 58.5842C87.3574 58.5842 87.2958 58.5842 87.2176 58.576C86.9749 58.1158 86.6953 57.6126 86.3673 57.0561L85.6136 55.6868C85.5128 55.5433 85.4275 55.4542 85.3647 55.4183C85.2958 55.3865 85.2084 55.366 85.1005 55.366L84.6707 55.3711L84.5257 55.366C84.5185 55.4736 84.5113 55.694 84.5113 56.0301V57.7643C84.5062 57.8288 84.5216 57.9221 84.5494 58.0318C84.5781 58.0974 84.6254 58.1486 84.6892 58.1917C84.7591 58.2286 84.9483 58.288 85.266 58.3618L85.4717 58.4182C85.5005 58.452 85.5128 58.4971 85.5128 58.5514C85.4213 58.5709 85.3586 58.576 85.3195 58.576C85.0162 58.576 84.8013 58.576 84.6789 58.5657C84.6121 58.5657 84.5596 58.5606 84.5206 58.5606L83.8275 58.5698L83.151 58.5647C83.1201 58.5647 82.9679 58.5698 82.6893 58.5791L82.5895 58.5606L82.5793 58.5104C82.5793 58.4807 82.5988 58.4448 82.6471 58.4048M84.536 55.0862C84.6265 55.0893 84.6933 55.0934 84.7385 55.0934C84.9843 55.0934 85.2681 55.0667 85.5838 55.0052C85.81 54.9653 85.9909 54.8915 86.1287 54.788C86.2655 54.6937 86.3837 54.543 86.4763 54.3473C86.5698 54.1546 86.6182 53.9517 86.6182 53.7426C86.6182 53.5099 86.5482 53.2711 86.3991 53.0098C86.2829 52.815 86.0979 52.6511 85.8326 52.5209C85.5642 52.3877 85.2444 52.3262 84.8722 52.3262C84.7786 52.3262 84.6624 52.3262 84.5175 52.3405C84.5 52.5147 84.4938 52.6511 84.4938 52.7423L84.5206 53.6903L84.5175 54.0808C84.5175 54.3452 84.5226 54.6763 84.536 55.0872M91.8426 52.0484C91.8611 52.1068 91.8673 52.1509 91.8673 52.1827C91.8673 52.2001 91.8621 52.2339 91.8529 52.2698C91.7655 52.2975 91.6945 52.3057 91.638 52.3057C91.6143 52.3057 91.5773 52.3057 91.5177 52.2975C91.4642 52.2975 91.4169 52.2944 91.384 52.2944C91.2267 52.2944 91.1054 52.3262 91.0149 52.3825C90.9521 52.4256 90.9151 52.4697 90.9007 52.5322L90.8493 53.1102L90.8647 55.6222C90.8668 56.5446 90.8987 57.1186 90.9552 57.341C91.0159 57.5675 91.1136 57.7509 91.2462 57.8955C91.3819 58.043 91.5866 58.165 91.859 58.2572C92.1295 58.3536 92.3978 58.3997 92.6559 58.3997C93.2338 58.3997 93.6749 58.3157 93.9813 58.1496C94.2877 57.9877 94.5067 57.7561 94.6425 57.465C94.7761 57.1729 94.842 56.7281 94.842 56.1306C94.842 56.1132 94.8368 55.9779 94.8276 55.7227V55.5782C94.8276 55.5249 94.8296 55.4183 94.8368 55.2594C94.844 55.1036 94.8502 55.0104 94.8502 54.9847L94.7731 53.5243C94.7484 53.0323 94.7186 52.7474 94.6867 52.6593C94.6538 52.5701 94.6096 52.5065 94.5458 52.4615C94.4163 52.3672 94.1643 52.28 93.7921 52.2083C93.7788 52.1591 93.7664 52.1068 93.7633 52.0587C93.8949 52.0474 94.0276 52.0392 94.1571 52.0392C94.2867 52.0392 94.4317 52.0433 94.5839 52.0587C94.8049 52.072 94.9283 52.0802 94.9489 52.0802L95.755 52.0587H95.9134L95.9041 52.2431C95.4887 52.2964 95.2368 52.3579 95.1576 52.4317C95.0774 52.5065 95.0353 52.6418 95.0353 52.8355C95.0353 52.9432 95.0425 53.1686 95.0579 53.5191L95.0898 54.5707L95.0867 54.9868L95.1011 55.5146C95.1011 56.1829 95.0815 56.6318 95.0445 56.8726C94.991 57.2047 94.915 57.4732 94.8132 57.6679C94.7124 57.8688 94.5684 58.041 94.3803 58.1958C94.1859 58.3577 93.9371 58.4868 93.6163 58.5852C93.3006 58.6877 92.9901 58.743 92.6806 58.743C92.1963 58.743 91.8457 58.7051 91.6308 58.6416C91.2401 58.5196 90.9285 58.3669 90.7033 58.1783C90.4689 57.9887 90.3105 57.7981 90.2221 57.6095C90.1059 57.3584 90.0422 56.9935 90.0422 56.5108V56.1562L90.0278 54.7418L90.0422 53.596V52.8212C90.0422 52.6285 90.0165 52.4891 89.963 52.4102C89.9239 52.3559 89.8694 52.3262 89.7995 52.3262L89.4972 52.3313C89.2761 52.3313 89.1332 52.3057 89.0736 52.2616C89.0623 52.2339 89.053 52.2083 89.053 52.1827C89.053 52.1509 89.0653 52.1263 89.088 52.1068C89.125 52.0843 89.1713 52.073 89.2268 52.073H89.3543L89.6967 52.0669H90.5059L91.8416 52.0494L91.8426 52.0484ZM96.4768 52.0894C96.5375 52.0812 96.5776 52.0771 96.5971 52.0771C96.7113 52.0771 96.8994 52.0812 97.1627 52.0945C97.3056 52.0986 97.3992 52.0986 97.4526 52.0986C97.5236 52.0986 97.6788 52.0945 97.9205 52.0812L98.7883 52.031C99.0155 52.0085 99.2777 51.9972 99.58 51.9972C100.112 51.9972 100.536 52.0771 100.854 52.2237C101.17 52.3743 101.411 52.609 101.583 52.9288C101.754 53.2516 101.839 53.5724 101.839 53.8912C101.839 54.419 101.651 54.8771 101.282 55.2604C100.906 55.6468 100.407 55.8395 99.7744 55.8395C99.5975 55.8395 99.4484 55.8211 99.3343 55.7842C99.2109 55.7514 99.0783 55.6817 98.9251 55.5812C98.8582 55.5351 98.8202 55.4941 98.8068 55.4419C98.8202 55.4183 98.8428 55.4019 98.8634 55.3906C98.9096 55.3906 98.958 55.4019 99.0094 55.4234C99.1276 55.4665 99.2705 55.4818 99.4484 55.4818C99.7178 55.4818 99.9728 55.4193 100.208 55.285C100.447 55.1549 100.626 54.9694 100.751 54.7255C100.874 54.4764 100.934 54.2233 100.934 53.9568C100.934 53.6903 100.87 53.4382 100.743 53.1881C100.614 52.9391 100.443 52.7392 100.233 52.5916C100.119 52.5066 99.9338 52.4369 99.689 52.3784C99.4412 52.3231 99.251 52.2944 99.1184 52.2944C98.6968 52.2944 98.448 52.3262 98.3698 52.3825L98.3626 52.4574L98.3811 53.0262L98.375 53.1307C98.3698 53.2209 98.3626 53.3593 98.3626 53.5468C98.3626 54.2386 98.375 54.6681 98.3955 54.8361V55.1231L98.4603 57.4363C98.4603 57.4701 98.4562 57.5347 98.4469 57.628C98.4408 57.7151 98.4367 57.7971 98.4367 57.8637C98.4367 58.0266 98.449 58.1466 98.4747 58.2316C98.557 58.2572 98.7976 58.3126 99.1893 58.3997C99.3693 58.4458 99.4741 58.4725 99.4896 58.4786C99.5173 58.4868 99.5379 58.5114 99.5615 58.5432C99.5471 58.5944 99.5307 58.6283 99.507 58.6416C99.4865 58.6539 99.4381 58.6652 99.3765 58.6652C99.3384 58.6652 99.2397 58.6539 99.0916 58.6416C98.7996 58.6078 98.5703 58.5955 98.4048 58.5955L97.5123 58.6293L96.9745 58.6139C96.9426 58.6139 96.846 58.619 96.6804 58.6231L96.6753 58.494L97.3395 58.3638C97.4475 58.3362 97.5123 58.3034 97.5369 58.2757C97.5678 58.2296 97.5873 58.1363 97.5873 57.9979C97.5873 57.9652 97.5904 57.8996 97.5904 57.7971C97.5956 57.7233 97.5956 57.628 97.5956 57.5029C97.5956 57.1042 97.5781 56.2536 97.5462 54.955C97.5308 54.3452 97.5256 53.7282 97.5256 53.1V53.0108C97.5256 52.772 97.4876 52.6183 97.4125 52.5537C97.2881 52.4369 96.9724 52.3497 96.4717 52.2811C96.4583 52.238 96.4491 52.2114 96.4491 52.1878C96.4491 52.1601 96.4583 52.1273 96.4768 52.0894ZM102.596 55.3209C102.596 54.9725 102.636 54.6681 102.718 54.4006C102.806 54.132 102.942 53.841 103.139 53.5253C103.335 53.2107 103.576 52.9483 103.85 52.7392C104.131 52.526 104.513 52.3405 105.007 52.1796C105.353 52.0669 105.789 52.0084 106.32 52.0084C106.676 52.0084 107.025 52.0597 107.364 52.1509C107.705 52.2472 108.014 52.3774 108.293 52.5496C108.569 52.7156 108.851 52.9749 109.13 53.3306C109.322 53.5724 109.465 53.8307 109.564 54.1136C109.695 54.4836 109.756 54.8628 109.756 55.2574C109.756 55.7012 109.714 56.0722 109.631 56.3673C109.544 56.6605 109.397 56.9495 109.196 57.2375C109.036 57.465 108.759 57.7182 108.373 58.0092C108.114 58.204 107.796 58.3618 107.411 58.4817C107.028 58.6026 106.614 58.6641 106.172 58.6641C105.73 58.6641 105.318 58.6119 104.966 58.5073C104.612 58.4059 104.315 58.2747 104.084 58.122C103.846 57.9713 103.601 57.7499 103.356 57.4537C103.105 57.1627 102.917 56.8408 102.789 56.4821C102.66 56.1275 102.596 55.737 102.596 55.3209ZM106.127 58.4786C106.412 58.4786 106.705 58.4366 107.013 58.3587C107.323 58.2798 107.594 58.1455 107.832 57.96C108.066 57.7796 108.255 57.5675 108.389 57.3359C108.523 57.1001 108.63 56.7927 108.709 56.4299C108.791 56.0599 108.831 55.6878 108.831 55.3209C108.831 54.8638 108.765 54.4057 108.63 53.9568C108.525 53.6124 108.353 53.3121 108.115 53.0415C107.879 52.772 107.59 52.567 107.256 52.4215C106.919 52.2708 106.565 52.196 106.18 52.196C105.875 52.196 105.572 52.2483 105.276 52.3497C104.983 52.4543 104.738 52.5824 104.548 52.7392C104.359 52.896 104.184 53.1174 104.017 53.4054C103.857 53.6954 103.733 54.0152 103.648 54.3647C103.563 54.7091 103.519 55.0206 103.519 55.285C103.519 55.5628 103.562 55.8805 103.648 56.2382C103.733 56.5959 103.85 56.9034 103.994 57.1627C104.142 57.4209 104.327 57.6546 104.538 57.8534C104.756 58.0584 104.997 58.2111 105.268 58.3167C105.536 58.4243 105.819 58.4797 106.127 58.4797" fill="#863BFF"/>
<path fill-rule="evenodd" clip-rule="evenodd" d="M112.987 58.5247L113.002 58.1783C113.425 58.127 113.696 58.0389 113.812 57.919C113.888 57.84 113.944 57.6269 113.987 57.2856L114.05 55.4746L114.129 53.6328C114.132 53.5211 114.136 53.4545 114.136 53.4289C114.136 52.9533 114.11 52.6766 114.053 52.5997C113.998 52.528 113.779 52.4532 113.4 52.3835C113.305 52.363 113.229 52.3456 113.174 52.3302C113.164 52.2482 113.163 52.1744 113.163 52.1201V51.9551C113.289 51.952 113.439 51.9428 113.609 51.9428L115.102 51.993C115.132 51.9981 115.183 52.0043 115.241 52.0084L115.478 52.0155C115.533 52.0852 115.593 52.1744 115.653 52.283C115.777 52.5352 115.943 52.897 116.149 53.3725L116.206 53.5098L117 55.2337C117.022 55.2747 117.05 55.3342 117.088 55.4141C117.14 55.5309 117.192 55.6488 117.249 55.7554C117.302 55.8681 117.358 55.9881 117.42 56.1223C117.485 56.2525 117.536 56.3724 117.584 56.4728C117.632 56.3908 117.68 56.3037 117.725 56.2043C117.863 55.8948 117.99 55.6088 118.122 55.3434C118.347 54.8801 118.652 54.1781 119.038 53.228C119.097 53.0753 119.198 52.8478 119.342 52.5434C119.48 52.2308 119.559 52.0709 119.572 52.0535C119.6 52.0278 119.664 52.0135 119.755 52.0135C119.789 52.0135 119.841 52.0094 119.912 52.0094C120.09 51.9961 120.305 51.9858 120.55 51.9817C120.906 51.9776 121.192 51.9694 121.407 51.95C121.627 51.9315 121.747 51.9223 121.774 51.9223C121.809 51.9223 121.849 51.9264 121.896 51.9305C121.899 51.9766 121.899 52.0186 121.899 52.0412L121.891 52.1939C121.891 52.2277 121.891 52.2738 121.887 52.3333C121.563 52.3794 121.304 52.4491 121.105 52.5464C120.966 52.6161 120.898 52.6992 120.898 52.8016V52.8795L120.983 54.4333C120.994 54.5727 121.021 55.2839 121.066 56.5569C121.078 56.8397 121.1 57.1964 121.134 57.6381C121.14 57.6914 121.144 57.7375 121.144 57.7652C121.15 57.8472 121.163 57.8964 121.197 57.921C121.231 57.9456 121.536 58.0409 122.113 58.2162C122.117 58.2736 122.118 58.3094 122.118 58.3371C122.118 58.4119 122.117 58.4827 122.113 58.5503C122.023 58.5503 121.789 58.537 121.419 58.496C121.05 58.4529 120.701 58.4365 120.375 58.4365C119.883 58.4365 119.407 58.4519 118.939 58.496C118.879 58.5052 118.819 58.5093 118.76 58.5134L118.771 58.1629C118.912 58.1065 119.095 58.0583 119.328 58.0235C119.489 57.9968 119.594 57.9487 119.638 57.8851C119.681 57.8236 119.705 57.6443 119.705 57.3481C119.705 57.2374 119.702 57.139 119.699 57.0519C119.681 56.6942 119.671 56.2043 119.667 55.574L119.582 53.7753C119.571 53.5201 119.558 53.3438 119.545 53.2505L118.276 56.1541C118.245 56.2197 118.2 56.3211 118.139 56.4462C118.062 56.6122 118.006 56.7291 117.982 56.7875C117.717 57.4157 117.536 57.8944 117.433 58.2285C117.405 58.3105 117.365 58.4232 117.309 58.5616L116.916 58.5513L116.643 57.7744C116.56 57.5705 116.421 57.2651 116.226 56.8479C116.107 56.605 116.019 56.4134 115.953 56.2637C115.922 56.2043 115.897 56.1592 115.89 56.1254L115.825 55.9993C115.82 55.9788 115.818 55.9634 115.808 55.9501L115.051 54.3195L114.587 53.3254L114.542 55.7318L114.509 57.2927C114.509 57.551 114.559 57.7334 114.655 57.8431C114.755 57.9538 114.96 58.0471 115.281 58.125L115.526 58.1865V58.5605C115.325 58.5554 115.115 58.5431 114.889 58.5134C114.666 58.4908 114.362 58.4765 113.99 58.4765C113.911 58.4765 113.576 58.4908 112.984 58.5226M122.163 58.5226H122.257C122.485 58.5226 122.725 58.5052 122.976 58.4663L123.185 58.4263C123.983 58.4837 124.484 58.5134 124.698 58.5134C124.704 58.4734 124.708 58.4376 124.708 58.3935C124.708 58.3474 124.707 58.2643 124.701 58.1393C124.488 58.1106 124.368 58.0911 124.334 58.084C124.118 58.0573 123.969 58.0153 123.889 57.9477C123.841 57.9118 123.82 57.8462 123.82 57.758C123.82 57.6935 123.851 57.5736 123.917 57.3963C124.143 56.7577 124.293 56.3601 124.365 56.1982L126.311 56.2023L126.713 57.1954L126.916 57.6996C126.933 57.7427 126.942 57.7888 126.942 57.837C126.942 57.88 126.924 57.92 126.894 57.9528C126.862 57.9774 126.764 58.0081 126.596 58.0542L126.028 58.1742C126.015 58.2838 126.013 58.3976 126.013 58.5165L126.265 58.5072L127.132 58.4642C127.25 58.4509 127.445 58.4468 127.71 58.4468C127.953 58.4468 128.229 58.4642 128.529 58.4847C128.829 58.5072 129.109 58.5206 129.364 58.5206C129.366 58.4703 129.366 58.4355 129.366 58.4099C129.366 58.3535 129.358 58.2715 129.338 58.1608C129.179 58.1004 129.031 58.0563 128.891 58.0389C128.757 58.0245 128.658 57.9886 128.596 57.9374C128.562 57.919 128.51 57.8359 128.443 57.6924C128.315 57.428 128.223 57.2179 128.164 57.0396C128.042 56.7198 127.949 56.4831 127.883 56.3232C127.766 56.0577 127.631 55.7154 127.471 55.3003C127.308 54.8781 127.129 54.4466 126.928 54.0038L126.042 51.91L125.999 51.8188H125.442L124.232 54.9775L123.203 57.6699C123.122 57.8216 123.052 57.919 122.995 57.961C122.939 58.0009 122.781 58.0491 122.521 58.1004C122.355 58.1291 122.244 58.1567 122.179 58.1742L122.166 58.5206L122.163 58.5226ZM124.566 55.6673L125.304 53.6995C125.406 53.9147 125.534 54.217 125.701 54.6147C125.863 55.0185 125.998 55.37 126.101 55.6744L125.97 55.6796C125.825 55.6796 125.36 55.6744 124.566 55.6652M129.586 58.2121C129.576 58.2746 129.572 58.333 129.572 58.3689C129.572 58.3914 129.576 58.4468 129.582 58.5308H129.801C129.976 58.5308 130.175 58.5206 130.39 58.4939L131.092 58.4468C131.132 58.4468 131.195 58.4437 131.283 58.4437C131.42 58.4437 131.852 58.4744 132.585 58.5411L132.79 58.5308C132.81 58.5308 132.85 58.5359 132.915 58.5359C132.928 58.4509 132.935 58.3279 132.935 58.1619C132.742 58.0829 132.518 58.0225 132.249 57.9651C132.096 57.9343 131.973 57.8923 131.875 57.838L131.908 56.8787L131.884 55.7482C131.884 55.6191 131.886 55.4992 131.899 55.4018C132.06 55.3946 132.178 55.3885 132.244 55.3885C132.494 55.3885 132.671 55.4254 132.773 55.4951C132.839 55.5412 132.955 55.7308 133.13 56.0588C133.494 56.7782 133.746 57.2999 133.9 57.6351C133.955 57.7591 134.057 57.9477 134.202 58.2039L134.372 58.537C134.425 58.5277 134.502 58.5226 134.592 58.5124C134.789 58.4898 134.912 58.4755 134.947 58.4755L135.458 58.4837C135.615 58.4837 135.75 58.4908 135.86 58.5093H136.069L136.337 58.5431L136.438 58.538H136.577C136.579 58.4919 136.581 58.4498 136.581 58.4232C136.581 58.374 136.572 58.3248 136.55 58.2695C136.469 58.2151 136.351 58.1537 136.198 58.0983C136.002 58.0235 135.871 57.9589 135.811 57.8974C135.745 57.839 135.61 57.6361 135.407 57.2897L134.595 55.9686C134.506 55.8261 134.39 55.6529 134.247 55.45C134.178 55.3567 134.126 55.2747 134.083 55.2009C134.544 55.0626 134.886 54.8494 135.112 54.5706C135.328 54.2877 135.442 53.9792 135.442 53.638C135.442 53.1778 135.236 52.7729 134.823 52.4204C134.415 52.0688 133.859 51.8864 133.159 51.8864C132.72 51.8864 132.297 51.91 131.9 51.952L131.262 51.9797L130.994 51.993C130.973 51.993 130.841 51.9838 130.594 51.9633C130.358 51.9633 130.199 51.9715 130.123 51.9715C129.976 51.9715 129.822 51.9838 129.654 52.0114L129.634 52.0678L129.644 52.3732C129.732 52.3876 129.918 52.405 130.19 52.4235L130.493 52.4839C130.511 52.6766 130.518 53.1306 130.518 53.8358C130.518 54.1596 130.515 54.5009 130.504 54.873L130.493 55.1476L130.504 55.6222L130.484 56.2299L130.489 57.3635C130.489 57.6412 130.484 57.8072 130.475 57.8534C130.475 57.8841 130.463 57.9323 130.449 58.002C130.308 58.0542 130.152 58.087 129.976 58.1127C129.807 58.1332 129.671 58.168 129.583 58.2162M131.882 54.9222V54.7807C131.883 54.5317 131.887 54.3318 131.897 54.1791L131.893 53.6236L131.906 53.2055L131.897 52.5208L131.906 52.4224C132.02 52.404 132.15 52.3948 132.309 52.3948C132.637 52.3948 132.877 52.4224 133.027 52.4685C133.229 52.5382 133.392 52.6397 133.519 52.7719C133.608 52.8621 133.682 53.0025 133.74 53.1911C133.801 53.3817 133.829 53.5795 133.829 53.7937C133.829 54.1402 133.709 54.4179 133.47 54.6219C133.229 54.8289 132.819 54.9314 132.239 54.9314C132.16 54.9314 132.046 54.9263 131.883 54.9211M136.862 58.5288C136.928 58.5236 137.076 58.5144 137.296 58.4919C137.641 58.4601 137.903 58.4416 138.085 58.4416L138.984 58.4499C139.39 58.4919 139.616 58.5144 139.665 58.5236C139.73 58.5339 139.774 58.538 139.798 58.538C139.813 58.538 139.877 58.538 139.983 58.5288C140.007 58.5236 140.042 58.5236 140.086 58.5236C140.09 58.4468 140.091 58.3843 140.091 58.3484C140.091 58.2869 140.082 58.1998 140.072 58.0993C139.892 58.0717 139.79 58.0594 139.764 58.0573C139.59 58.0378 139.405 58.005 139.197 57.9651C139.179 57.9149 139.168 57.8769 139.168 57.8482L139.18 57.6545L139.165 56.6358L139.187 55.9553L139.179 54.6126C139.179 54.3062 139.187 53.8634 139.196 53.2936C139.187 53.1993 139.179 53.0804 139.179 52.938C139.179 52.7719 139.19 52.6397 139.21 52.5516C139.325 52.5106 139.47 52.4634 139.642 52.4235C139.815 52.3825 139.972 52.3353 140.106 52.2892C140.116 52.1959 140.121 52.1221 140.121 52.0678C140.121 52.0217 140.118 51.9622 140.114 51.9069C140.048 51.9069 139.89 51.9182 139.645 51.9325C139.204 51.9602 138.881 51.9745 138.683 51.9745C138.637 51.9745 138.526 51.9704 138.344 51.9623L136.888 51.9069L136.901 52.3507C136.939 52.362 136.998 52.362 137.076 52.3691C137.391 52.3825 137.615 52.4235 137.754 52.489C137.773 52.5618 137.785 52.6182 137.788 52.65L137.799 52.8724L137.826 53.4443L137.812 53.724L137.822 54.4015C137.822 54.42 137.807 54.7653 137.782 55.4387L137.786 55.7113L137.774 56.8756L137.782 57.4711C137.782 57.6607 137.748 57.8052 137.689 57.9108C137.58 57.9692 137.415 58.0266 137.196 58.0768C137.039 58.1137 136.928 58.1424 136.862 58.166V58.5308V58.5288ZM144.889 52.0904C144.573 51.9827 144.317 51.909 144.12 51.8772C143.802 51.8208 143.559 51.788 143.398 51.788C142.642 51.788 142.067 51.9786 141.681 52.3538C141.297 52.734 141.101 53.1891 141.101 53.7302C141.101 53.9967 141.168 54.2734 141.309 54.5665C141.449 54.8586 141.641 55.0892 141.882 55.2604C142.124 55.4315 142.556 55.6314 143.183 55.8517C143.806 56.0711 144.192 56.2473 144.332 56.3816C144.573 56.5948 144.688 56.8264 144.688 57.0755C144.688 57.2856 144.622 57.4741 144.487 57.6494C144.35 57.8298 144.173 57.9599 143.952 58.0337C143.733 58.1127 143.532 58.1506 143.345 58.1506C143.142 58.1506 142.949 58.1239 142.77 58.0573C142.598 57.9927 142.443 57.9087 142.316 57.8031C142.191 57.6955 142.07 57.5561 141.966 57.3809C141.918 57.302 141.813 57.0744 141.653 56.6942L141.176 56.7075V56.8982C141.176 56.9924 141.179 57.1493 141.186 57.3665C141.205 57.798 141.213 58.0286 141.213 58.0645V58.1239C141.224 58.1731 141.241 58.2059 141.258 58.2182C141.302 58.2582 141.408 58.2971 141.577 58.3443L142.191 58.5247C142.521 58.5903 142.804 58.6282 143.043 58.6282C143.404 58.6282 143.7 58.5944 143.929 58.5349C144.159 58.4755 144.379 58.373 144.596 58.2387C144.81 58.1004 144.968 57.9804 145.07 57.878C145.215 57.7355 145.316 57.5807 145.381 57.4147C145.5 57.1093 145.559 56.7936 145.559 56.4739C145.559 56.1838 145.519 55.9378 145.447 55.7441C145.371 55.5494 145.227 55.3444 145.024 55.1364C144.871 54.9734 144.646 54.8268 144.352 54.6936C144.059 54.5583 143.806 54.4609 143.6 54.4015C142.98 54.2201 142.576 54.0264 142.384 53.8276C142.192 53.6298 142.099 53.4207 142.099 53.2014C142.099 52.9441 142.192 52.7258 142.388 52.5526C142.585 52.3773 142.846 52.2902 143.183 52.2902C143.519 52.2902 143.835 52.4245 144.097 52.6981C144.245 52.8529 144.398 53.1614 144.542 53.6093L144.608 53.6175L144.973 53.6421L145.025 53.6287C145.036 53.5539 145.044 53.4873 145.044 53.434C145.044 53.2352 145.025 52.9677 144.985 52.6141C144.955 52.3835 144.925 52.2072 144.89 52.0914M146.46 51.663C146.432 51.7255 146.396 51.8598 146.34 52.0555C146.153 52.7115 146.007 53.1491 145.903 53.3735C145.943 53.4238 146.048 53.4873 146.205 53.5724C146.244 53.5724 146.307 53.516 146.391 53.4094C146.686 53.0292 146.903 52.7986 147.049 52.7145C147.157 52.6592 147.371 52.6243 147.691 52.6243C148.274 52.6243 148.616 52.6325 148.722 52.6479C148.755 52.651 148.778 52.6602 148.794 52.6766C148.809 52.6889 148.821 52.7125 148.833 52.7453C148.851 52.8529 148.86 53.1757 148.86 53.7025L148.888 55.6283C148.888 56.5118 148.876 57.1646 148.852 57.5684C148.844 57.675 148.822 57.758 148.792 57.8226C148.655 57.8944 148.407 57.9682 148.056 58.0553C147.849 58.1014 147.708 58.1752 147.633 58.2715V58.3125L147.638 58.4294C147.641 58.456 147.645 58.4939 147.65 58.5462C147.707 58.5462 147.831 58.5411 148.024 58.5257C148.522 58.4867 148.821 58.4693 148.922 58.4693C149.565 58.4693 150.01 58.4765 150.255 58.5052C150.5 58.5257 150.797 58.5411 151.147 58.5411C151.197 58.5411 151.256 58.5411 151.332 58.5359C151.344 58.4765 151.35 58.4345 151.35 58.4027C151.35 58.3761 151.34 58.3043 151.323 58.1793C151.241 58.1516 151.152 58.126 151.05 58.1004C150.823 58.044 150.697 58.0225 150.67 58.0184C150.524 57.9938 150.42 57.9763 150.37 57.9518C150.327 57.8318 150.306 57.6566 150.306 57.426L150.311 56.7618L150.295 55.1487V53.6513L150.288 52.9718C150.288 52.8877 150.299 52.7822 150.316 52.6489C150.459 52.6346 150.578 52.6254 150.673 52.6254C151.315 52.6254 151.674 52.6336 151.759 52.652C151.812 52.6664 151.862 52.694 151.901 52.7402C151.932 52.7699 151.993 52.9082 152.097 53.1583C152.201 53.4074 152.299 53.597 152.385 53.7323C152.491 53.721 152.616 53.6923 152.753 53.6462C152.768 53.5877 152.774 53.5088 152.774 53.4217L152.781 53.1624L152.774 52.7084C152.774 52.2359 152.772 51.8854 152.767 51.6517C152.701 51.6507 152.652 51.6445 152.617 51.6445L152.39 51.6517C152.365 51.7091 152.35 51.7501 152.335 51.7788C152.284 51.9131 152.237 51.9961 152.192 52.0299L151.893 52.0719H150.315L149.164 52.0688L148.545 52.0719L148.441 52.0801C148.236 52.0832 148.005 52.0832 147.741 52.0832C147.322 52.0832 147.088 52.0801 147.043 52.0719C146.995 52.0186 146.919 51.911 146.825 51.746C146.813 51.7286 146.799 51.7019 146.774 51.6661H146.46V51.663ZM152.187 58.5247H152.276C152.504 58.5247 152.747 58.5072 152.998 58.4683L153.208 58.4283C154.003 58.4857 154.507 58.5154 154.718 58.5154C154.726 58.4755 154.73 58.4396 154.73 58.3955C154.73 58.3494 154.726 58.2664 154.724 58.1414C154.515 58.1127 154.39 58.0932 154.361 58.086C154.14 58.0594 153.99 58.0173 153.909 57.9497C153.863 57.9138 153.841 57.8482 153.841 57.7601C153.841 57.6955 153.873 57.5756 153.936 57.3983C154.165 56.7598 154.313 56.3621 154.385 56.2002L156.334 56.2043L156.732 57.1974L156.934 57.7017C156.951 57.7447 156.96 57.7908 156.96 57.839C156.96 57.8821 156.945 57.922 156.908 57.9548C156.884 57.9794 156.784 58.0102 156.616 58.0563L156.048 58.1762C156.04 58.2859 156.032 58.3996 156.032 58.5185L156.283 58.5093L157.149 58.4663C157.269 58.4529 157.466 58.4488 157.732 58.4488C157.975 58.4488 158.245 58.4662 158.55 58.4867C158.854 58.5093 159.128 58.5226 159.382 58.5226C159.384 58.4724 159.386 58.4376 159.386 58.4119C159.386 58.3556 159.377 58.2736 159.361 58.1629C159.199 58.1024 159.051 58.0583 158.911 58.0409C158.777 58.0266 158.678 57.9907 158.613 57.9395C158.58 57.921 158.529 57.838 158.463 57.6945C158.335 57.4301 158.241 57.22 158.181 57.0416C158.06 56.7219 157.967 56.4851 157.902 56.3252C157.788 56.0598 157.649 55.7175 157.488 55.3024C157.328 54.8801 157.148 54.4487 156.944 54.0059L156.06 51.912L156.015 51.8208H155.46L154.252 54.9795L153.222 57.672C153.142 57.8236 153.069 57.921 153.014 57.963C152.956 58.003 152.799 58.0512 152.539 58.1024C152.374 58.1311 152.262 58.1588 152.196 58.1762L152.186 58.5226L152.187 58.5247ZM154.586 55.6693L155.325 53.7015C155.428 53.9167 155.558 54.2191 155.724 54.6167C155.886 55.0205 156.021 55.3721 156.124 55.6765L155.993 55.6816C155.852 55.6816 155.381 55.6765 154.586 55.6673" fill="#863BFF"/>
<path d="M159.506 44.8179H74.9199V45.3016H159.506V44.8179Z" fill="#863BFF"/>
</g>
<defs>
<clipPath id="clip0_11087_22157">
<rect width="159.507" height="65" fill="white"/>
</clipPath>
</defs>
</svg>
