<svg width="157" height="65" viewBox="0 0 157 65" fill="none" xmlns="http://www.w3.org/2000/svg">
<g clip-path="url(#clip0_11029_1135)">
<path d="M12.9327 52.4471L13.1685 52.9053C12.8548 53.0764 12.791 53.3316 12.9327 53.6073C13.0865 53.9056 13.3375 53.9589 13.5835 53.8287C14.1937 53.5069 13.5582 52.1858 14.4711 51.7031C14.9143 51.4684 15.4173 51.6221 15.6876 52.1458C15.9629 52.6788 15.7888 53.1779 15.2736 53.4669L15.0378 53.0088C15.3273 52.8448 15.388 52.6152 15.2635 52.3744C15.133 52.1212 14.9174 52.0485 14.6978 52.1643C14.0966 52.482 14.7696 53.7887 13.8173 54.292C13.3608 54.5328 12.8032 54.415 12.5026 53.8328C12.2182 53.2814 12.373 52.7474 12.9327 52.4461V52.4471Z" fill="#8A0538"/>
<path d="M14.2154 54.7153L15.3914 53.8994C15.9713 53.4977 16.5067 53.6063 16.8508 54.1147C17.2061 54.6404 17.1049 55.1662 16.5543 55.5844L16.275 55.1703C16.5927 54.9131 16.6433 54.6599 16.4561 54.3822C16.2911 54.1382 16.0229 54.087 15.6799 54.3248L14.5028 55.1406C14.1638 55.3753 14.1132 55.6469 14.2842 55.9C14.4745 56.1819 14.7305 56.2229 15.0767 56.0251L15.356 56.4391C14.773 56.8009 14.2528 56.7056 13.8915 56.1716C13.5474 55.6623 13.6385 55.1139 14.2144 54.7142L14.2154 54.7153Z" fill="#8A0538"/>
<path d="M17.9714 55.6908L15.3238 57.9548L15.001 57.5685L17.6486 55.3044L17.9714 55.6908Z" fill="#8A0538"/>
<path d="M17.5283 59.5518L17.2024 59.8951L15.9434 58.6683L18.346 56.1399L19.5696 57.3318L19.2437 57.6752L18.3804 56.8337L17.6831 57.5665L18.4786 58.3414L18.1598 58.6775L17.3643 57.9027L16.6295 58.6755L17.5283 59.5518Z" fill="#8A0538"/>
<path d="M21.5605 58.7954L19.5708 61.6692L19.1609 61.3781L19.503 59.521C19.5658 59.2473 19.6558 58.864 19.7145 58.6304H19.6963C19.5253 58.9378 19.248 59.3826 19.0597 59.6542L18.2926 60.7632L17.8867 60.4752L19.8765 57.6003L20.2863 57.8914L19.925 59.8203C19.8765 60.0734 19.7975 60.4157 19.7469 60.6371H19.7651C19.9291 60.3317 20.2023 59.8828 20.3795 59.6286L21.1557 58.5074L21.5605 58.7954Z" fill="#8A0538"/>
<path d="M23.32 60.2414L22.6733 59.9134L21.3354 62.6212L20.8789 62.3906L22.2169 59.6828L21.5752 59.3579L21.7877 58.9275L23.5316 59.8109L23.319 60.2414H23.32Z" fill="#8A0538"/>
<path d="M24.2879 60.0858L23.033 63.3573L22.5664 63.1738L23.8214 59.9023L24.2879 60.0858Z" fill="#8A0538"/>
<path d="M25.3205 63.352L24.4389 63.0989L24.0958 63.7353L23.5908 63.5898L25.3761 60.4536L25.8953 60.6033L25.787 64.2211L25.2871 64.0776L25.3205 63.352ZM25.3478 62.8703L25.3923 61.9028C25.4065 61.6671 25.4449 61.3289 25.4713 61.1434L25.4571 61.1393C25.3832 61.3104 25.2456 61.6199 25.1302 61.827L24.6707 62.6756L25.3468 62.8703H25.3478Z" fill="#8A0538"/>
<path d="M26.8034 63.9076L26.2973 65.0011L26.0059 64.9417L26.3368 63.8123L26.8024 63.9076H26.8034Z" fill="#8A0538"/>
<path d="M28.5059 61.1548L29.0281 61.2009L29.2751 63.1656C29.3176 63.4813 29.3419 63.8257 29.3672 64.1096L29.3864 64.1116C29.4603 63.8359 29.5483 63.5018 29.6394 63.1984L30.2254 61.3075L30.7436 61.3536L29.5919 64.7747L29.0494 64.7265L28.5049 61.1548H28.5059Z" fill="#8A0538"/>
<path d="M31.5368 61.3515L31.5166 64.8607L31.0166 64.8576L31.0368 61.3484L31.5368 61.3515Z" fill="#8A0538"/>
<path d="M33.903 61.7861L33.1804 61.8127L33.2887 64.8393L32.7786 64.8577L32.6703 61.8312L31.9528 61.8578L31.9355 61.3772L33.8848 61.3054L33.902 61.7861H33.903Z" fill="#8A0538"/>
<path d="M35.6523 63.9116L34.7435 64.0253L34.6716 64.7469L34.1504 64.8114L34.5917 61.2202L35.127 61.1536L36.4154 64.5296L35.8993 64.5941L35.6513 63.9126L35.6523 63.9116ZM35.4924 63.4565L35.1625 62.5474C35.0856 62.325 34.9904 61.9981 34.9439 61.8167L34.9287 61.8187C34.9267 62.0063 34.9175 62.3455 34.8912 62.5812L34.7941 63.5436L35.4924 63.4565Z" fill="#8A0538"/>
<path d="M39.7778 63.1429L39.9155 63.5979L38.2445 64.1155L37.2314 60.76L38.8548 60.2578L38.9925 60.7129L37.8468 61.0675L38.1403 62.0411L39.1959 61.7142L39.3305 62.16L38.2749 62.487L38.5846 63.5129L39.7778 63.1439V63.1429Z" fill="#8A0538"/>
<path d="M40.9901 59.8151L40.3332 60.1205L41.5801 62.8734L41.1166 63.0886L39.8697 60.3357L39.2169 60.6391L39.0186 60.2015L40.7917 59.3774L40.9901 59.8151Z" fill="#8A0538"/>
<path d="M42.5434 58.781L43.1638 59.6193L43.9998 58.9849L44.2731 59.3539L43.4371 59.9883L44.3398 61.2079L43.9401 61.5113L41.8623 58.7021L43.1699 57.71L43.4523 58.0912L42.5444 58.78L42.5434 58.781Z" fill="#8A0538"/>
<path d="M43.7745 57.1094L46.1478 59.6665L45.7835 60.0129L43.4102 57.4558L43.7745 57.1094Z" fill="#8A0538"/>
<path d="M44.1826 56.7282L44.7352 56.059C45.1674 55.5353 45.725 55.485 46.2493 55.9288L47.2452 56.7713C47.7735 57.2181 47.8271 57.7859 47.399 58.3055L46.8434 58.9789L44.1836 56.7282H44.1826ZM47.0336 57.997C47.2624 57.7203 47.229 57.4241 46.9132 57.1566L45.9325 56.3275C45.6208 56.0641 45.3344 56.0825 45.1026 56.3634L44.8678 56.6483L46.7978 58.2809L47.0326 57.996L47.0336 57.997Z" fill="#8A0538"/>
<path d="M49.1265 54.9519L49.5263 55.203L48.6063 56.7076L45.6602 54.8597L46.5548 53.3982L46.9546 53.6493L46.3241 54.6803L47.1783 55.2164L47.7592 54.2663L48.1509 54.5112L47.5699 55.4613L48.4707 56.026L49.1275 54.9519H49.1265Z" fill="#8A0538"/>
<path d="M48.9483 54.2643L49.1639 53.796C49.4888 53.9436 49.7276 53.8411 49.8572 53.5592C49.9968 53.2548 49.8865 53.0201 49.6355 52.9012C49.0121 52.6071 48.3633 53.921 47.4302 53.4813C46.9768 53.2671 46.7906 52.77 47.0375 52.234C47.2885 51.6888 47.7844 51.5248 48.3249 51.7626L48.1093 52.231C47.8047 52.0977 47.5881 52.1889 47.4747 52.4349C47.3553 52.6942 47.4302 52.9115 47.6549 53.017C48.2692 53.3071 48.8846 51.9717 49.8582 52.4308C50.3247 52.6512 50.5717 53.1708 50.2974 53.7662C50.0383 54.3299 49.5252 54.5298 48.9493 54.2633L48.9483 54.2643Z" fill="#8A0538"/>
<path d="M31.4186 9.79289C31.705 9.99377 33.9306 11.4594 35.6987 9.71705C35.7513 9.66478 35.7493 9.57766 35.6957 9.52642C35.3354 9.18205 34.0116 7.95935 32.4459 6.9898C32.4297 6.97955 32.4196 6.96213 32.4196 6.94265V4.59154C32.4196 4.56079 32.4439 4.53619 32.4742 4.53619H34.2666C34.3395 4.53619 34.3982 4.47675 34.3982 4.40296V2.57864C34.3982 2.50485 34.3395 2.4454 34.2666 2.4454H32.4742C32.4439 2.4454 32.4196 2.42081 32.4196 2.39006V0.133237C32.4196 0.059444 32.3609 0 32.288 0H30.4865C30.4136 0 30.3549 0.059444 30.3549 0.133237V2.38903C30.3549 2.41978 30.3307 2.44438 30.3003 2.44438H28.5079C28.435 2.44438 28.3763 2.50382 28.3763 2.57762V4.40193C28.3763 4.47573 28.435 4.53517 28.5079 4.53517H30.3003C30.3307 4.53517 30.3549 4.55977 30.3549 4.59051V6.94163C30.3549 6.9611 30.3448 6.97852 30.3286 6.98877C28.764 7.95833 27.4412 9.18 27.0799 9.52539C27.0262 9.57664 27.0232 9.66375 27.0768 9.71705C28.8449 11.4583 31.0705 9.99275 31.3569 9.79187C31.3751 9.77854 31.3994 9.77854 31.4186 9.79187V9.79289Z" fill="#8A0538"/>
<path d="M31.4148 14.8908C31.7751 15.0917 35.7293 17.2092 38.6724 14.7689C38.718 14.731 38.7332 14.6664 38.7089 14.6121C38.5773 14.3159 38.1259 13.3402 37.375 12.1728C37.3507 12.1349 37.3082 12.1113 37.2636 12.1113H25.5114C25.4669 12.1113 25.4244 12.1349 25.4001 12.1728C24.6501 13.3402 24.1977 14.3159 24.0662 14.6121C24.0419 14.6664 24.0571 14.731 24.1026 14.7689C27.0457 17.2092 31.0009 15.0917 31.3602 14.8908C31.3764 14.8816 31.3966 14.8816 31.4128 14.8908H31.4148Z" fill="#8A0538"/>
<path d="M36.9284 36.1584L32.118 39.0066C32.034 39.0568 31.9277 38.9953 31.9277 38.8959V33.5961C31.9277 33.55 31.952 33.508 31.9905 33.4855L36.8009 30.6373C36.8849 30.587 36.9911 30.6485 36.9911 30.748V36.0477C36.9911 36.0938 36.9668 36.1358 36.9284 36.1584Z" fill="#8A0538"/>
<path d="M25.8479 36.1584L30.6583 39.0066C30.7423 39.0568 30.8486 38.9953 30.8486 38.8959V33.5961C30.8486 33.55 30.8243 33.508 30.7858 33.4855L25.9754 30.6373C25.8914 30.587 25.7852 30.6485 25.7852 30.748V36.0477C25.7852 36.0938 25.8094 36.1358 25.8479 36.1584Z" fill="#8A0538"/>
<path d="M40.7288 45.4256L32.117 50.5224C32.033 50.5726 31.9268 50.5112 31.9268 50.4117V40.2847C31.9268 40.2386 31.951 40.1966 31.9895 40.174L40.6012 35.0772C40.6852 35.027 40.7915 35.0885 40.7915 35.1879V45.3149C40.7915 45.361 40.7672 45.4031 40.7288 45.4256Z" fill="#8A0538"/>
<path d="M22.0471 45.4256L30.6589 50.5224C30.7429 50.5726 30.8491 50.5112 30.8491 50.4117V40.2847C30.8491 40.2386 30.8248 40.1966 30.7864 40.174L22.1746 35.0772C22.0906 35.027 21.9844 35.0885 21.9844 35.1879V45.3149C21.9844 45.361 22.0087 45.4031 22.0471 45.4256Z" fill="#8A0538"/>
<path d="M23.235 17.5473C23.1864 17.5473 23.1449 17.5155 23.1307 17.4684C22.9435 16.8524 22.5589 16.2928 21.9952 15.8972L15.2669 11.1765C14.1688 10.4058 12.6618 10.6825 11.9008 11.7956L11.2723 12.7139L8.63379 11.0187C8.58217 10.9859 8.51436 11.0013 8.48198 11.0525L7.42335 12.7415C7.39096 12.7938 7.40614 12.8625 7.45674 12.8953L10.0203 14.5423L4.28288 22.928C4.24847 22.9782 4.26061 23.0479 4.31021 23.0827L10.8593 27.6774C10.9089 27.7122 10.9777 27.6999 11.0122 27.6497L18.1989 17.1629C18.8426 16.2867 20.1451 16.2549 21.0469 16.8883C21.8565 17.4561 22.1753 18.4707 21.9092 19.3767C21.8879 19.4485 21.8059 19.4802 21.7442 19.4403L19.3274 17.8875C19.2778 17.8558 19.212 17.8691 19.1786 17.9183L18.0511 19.5643C18.0157 19.6165 18.0299 19.6873 18.0825 19.7211L27.0485 25.481C27.095 25.5107 27.0738 25.5835 27.0191 25.5835H17.6726C17.6119 25.5835 17.5633 25.6337 17.5633 25.6942V34.4888C17.5633 34.5083 17.5542 34.5257 17.538 34.536L11.2905 38.5495C11.2459 38.5782 11.1923 38.5341 11.2095 38.4839C11.4089 37.9007 11.4969 37.2642 11.4413 36.6001C11.2561 34.3648 9.45357 32.5733 7.2432 32.4288C4.61585 32.2576 2.43281 34.3648 2.43281 36.9885C2.43281 37.9724 2.74048 38.8826 3.26271 39.6287C3.28396 39.6594 3.26979 39.7014 3.23437 39.7127C1.26892 40.299 -0.13887 42.2042 0.0109172 44.417C0.16374 46.6769 1.97029 48.5022 4.20191 48.6539C5.63096 48.7503 6.92945 48.1732 7.81805 47.2047C7.84336 47.177 7.88789 47.1822 7.90509 47.216C8.69552 48.7011 10.2713 49.6932 12.0698 49.6173C14.436 49.5179 16.3468 47.5358 16.3903 45.1385C16.4328 42.7864 14.7204 40.8299 12.4898 40.5244C12.4382 40.5173 12.423 40.4506 12.4665 40.423L17.4783 37.2038C17.5147 37.1802 17.5623 37.2068 17.5623 37.2509V43.0108C17.5623 50.7478 23.6975 57.1349 31.3376 57.1626C38.995 57.1893 45.2111 50.9118 45.2111 43.1635V37.2509C45.2111 37.2068 45.2587 37.1802 45.2951 37.2038L50.3069 40.423C50.3505 40.4506 50.3353 40.5173 50.2837 40.5244C48.053 40.8299 46.3406 42.7864 46.3831 45.1385C46.4266 47.5358 48.3374 49.5189 50.7037 49.6173C52.5021 49.6921 54.0789 48.7 54.8684 47.216C54.8866 47.1822 54.9301 47.177 54.9554 47.2047C55.844 48.1732 57.1425 48.7503 58.5715 48.6539C60.8032 48.5022 62.6097 46.6769 62.7625 44.417C62.9123 42.2032 61.5045 40.299 59.5391 39.7117C59.5037 39.7014 59.4885 39.6594 59.5107 39.6277C60.0249 38.8938 60.3305 37.9991 60.3406 37.0326C60.3649 34.5114 58.3124 32.4155 55.8227 32.4185C53.333 32.4216 51.316 34.4663 51.316 36.9885C51.316 37.5123 51.404 38.0155 51.5649 38.4839C51.5821 38.5341 51.5285 38.5782 51.484 38.5495L45.2364 34.536C45.2203 34.5257 45.2111 34.5083 45.2111 34.4888V25.6942C45.2111 25.6327 45.1616 25.5835 45.1018 25.5835H35.7553C35.7007 25.5835 35.6794 25.5107 35.726 25.481L44.692 19.7211C44.7446 19.6873 44.7587 19.6155 44.7233 19.5643L43.5959 17.9183C43.5625 17.8691 43.4967 17.8558 43.4471 17.8875L41.0303 19.4403C40.9685 19.4802 40.8866 19.4474 40.8653 19.3767C40.5991 18.4707 40.9179 17.4561 41.7276 16.8883C42.6304 16.2549 43.9319 16.2867 44.5756 17.1629L51.7623 27.6497C51.7967 27.6999 51.8655 27.7122 51.9151 27.6774L58.4643 23.0827C58.5138 23.0479 58.526 22.9782 58.4916 22.928L52.7865 14.5894C52.7683 14.5638 52.7764 14.5279 52.8027 14.5105L55.3187 12.8942C55.3703 12.8615 55.3855 12.7928 55.3521 12.7405L54.2935 11.0515C54.2611 10.9992 54.1933 10.9838 54.1417 11.0177L51.5477 12.6841C51.5224 12.7005 51.4901 12.6934 51.4728 12.6688L50.8747 11.7945C50.1136 10.6825 48.6067 10.4058 47.5086 11.1755L40.7803 15.8962C40.2166 16.2918 39.832 16.8514 39.6447 17.4673C39.6306 17.5145 39.5891 17.5463 39.5405 17.5463H23.235V17.5473ZM48.3617 19.675L49.6359 18.7813C49.6612 18.7638 49.6673 18.729 49.6501 18.7044L48.6198 17.1988L48.5004 17.0236C48.466 16.9733 48.4781 16.9036 48.5277 16.8688L49.6622 16.0725C49.7118 16.0376 49.7807 16.0499 49.8151 16.1001L49.9719 16.3287L50.9648 17.7799C50.982 17.8056 51.0164 17.8117 51.0407 17.7943L52.3149 16.9006C52.3645 16.8657 52.4333 16.878 52.4677 16.9282L53.2541 18.0772C53.2885 18.1274 53.2764 18.1971 53.2268 18.2319L51.9526 19.1256C51.9273 19.143 51.9212 19.1779 51.9384 19.2025L53.5425 21.5464C53.5769 21.5966 53.5648 21.6663 53.5152 21.7012L52.3807 22.4975C52.3311 22.5324 52.2623 22.5201 52.2279 22.4699L50.6237 20.1259C50.6065 20.1003 50.5721 20.0941 50.5478 20.1116L49.2736 21.0053C49.224 21.0401 49.1552 21.0278 49.1208 20.9776L48.3344 19.8287C48.3 19.7785 48.3121 19.7088 48.3617 19.6739V19.675ZM14.4421 19.8297L13.6557 20.9786C13.6213 21.0289 13.5525 21.0412 13.5029 21.0063L12.2287 20.1126C12.2034 20.0952 12.17 20.1013 12.1528 20.1269L10.5486 22.4709C10.5142 22.5211 10.4454 22.5334 10.3958 22.4986L9.26127 21.7022C9.21168 21.6674 9.19954 21.5977 9.23395 21.5475L10.8381 19.2035C10.8553 19.1779 10.8492 19.1441 10.8239 19.1266L9.54971 18.2329C9.50012 18.1981 9.48798 18.1284 9.52239 18.0782L10.3088 16.9293C10.3432 16.879 10.412 16.8667 10.4616 16.9016L11.7358 17.7953C11.7611 17.8127 11.7945 17.8066 11.8117 17.781L12.8045 16.3297L12.9614 16.1012C12.9958 16.0509 13.0646 16.0386 13.1142 16.0735L14.2488 16.8698C14.2984 16.9047 14.3115 16.9744 14.2761 17.0246L14.1567 17.1998L13.1264 18.7054C13.1092 18.731 13.1152 18.7649 13.1405 18.7823L14.4148 19.676C14.4643 19.7108 14.4765 19.7805 14.4421 19.8307V19.8297ZM4.73123 46.8163C3.0694 46.9485 1.694 45.5557 1.82455 43.8728C1.92779 42.5496 2.98641 41.4766 4.29401 41.372C5.95584 41.2398 7.33125 42.6327 7.20069 44.3155C7.09746 45.6387 6.03883 46.7117 4.73123 46.8163ZM7.16426 39.7107C5.50243 39.8429 4.12702 38.45 4.25758 36.7672C4.36081 35.444 5.41944 34.371 6.72704 34.2674C8.38886 34.1352 9.76427 35.5281 9.63372 37.2109C9.53048 38.5341 8.47186 39.6072 7.16426 39.7107ZM14.5666 44.83C14.6971 46.5129 13.3217 47.9057 11.6599 47.7735C10.3533 47.669 9.29366 46.597 9.19043 45.2728C9.05987 43.5899 10.4353 42.1971 12.0971 42.3293C13.4037 42.4338 14.4633 43.5059 14.5666 44.83ZM24.8057 21.2789C28.2518 22.4319 31.034 20.5349 31.3559 20.3022C31.3751 20.2889 31.3994 20.2889 31.4186 20.3022C31.7415 20.5349 34.5236 22.4309 37.9687 21.2789C38.0305 21.2584 38.07 21.3425 38.0153 21.3783L31.539 25.5394C31.4935 25.5681 31.4409 25.5835 31.3872 25.5835C31.3336 25.5835 31.281 25.5681 31.2354 25.5394L24.7592 21.3783C24.7045 21.3435 24.744 21.2584 24.8057 21.2789ZM43.5665 43.1605C43.5665 49.9863 38.0902 55.5177 31.3447 55.4931C24.6134 55.4695 19.2089 49.8428 19.2089 43.0262V27.3596C19.2089 27.2981 19.2585 27.2489 19.3182 27.2489H43.4562C43.5169 27.2489 43.5655 27.2992 43.5655 27.3596V43.1594L43.5665 43.1605ZM51.1156 47.7735C49.4538 47.9057 48.0784 46.5129 48.2089 44.83C48.3121 43.5069 49.3708 42.4338 50.6784 42.3293C52.3402 42.1971 53.7156 43.5899 53.585 45.2728C53.4818 46.5959 52.4232 47.669 51.1156 47.7735ZM53.1418 37.2099C53.0112 35.527 54.3866 34.1342 56.0484 34.2664C57.355 34.371 58.4147 35.443 58.5179 36.7672C58.6485 38.45 57.273 39.8429 55.6112 39.7107C54.3046 39.6061 53.245 38.5341 53.1418 37.2099ZM58.4815 46.8163C56.8196 46.9485 55.4442 45.5557 55.5748 43.8728C55.678 42.5496 56.7366 41.4766 58.0442 41.372C59.7061 41.2398 61.0815 42.6327 60.9509 44.3155C60.8477 45.6387 59.7891 46.7117 58.4815 46.8163Z" fill="#8A0538"/>
<path d="M73.7031 38.5372V20.335H80.4526C84.253 20.335 87.0777 22.9935 87.0777 26.5879C87.0777 30.1822 84.253 32.7649 80.4526 32.7649H78.3283V38.5372H73.7031ZM78.3283 28.4112H80.3778C81.6277 28.4112 82.3523 27.6015 82.3523 26.5633C82.3523 25.525 81.6024 24.6898 80.3778 24.6898H78.3283V28.4112Z" fill="#8A0538"/>
<path d="M88.6778 30.2334V20.335H93.3272V30.2334C93.3272 32.6132 94.9526 34.3351 97.1266 34.3351C99.3005 34.3351 100.951 32.5886 100.951 30.2334V20.335H105.576V30.2334C105.576 35.1191 101.976 38.739 97.1266 38.739C92.2767 38.739 88.6768 35.1191 88.6768 30.2334H88.6778Z" fill="#8A0538"/>
<path d="M107.477 29.4237C107.477 24.1834 111.476 20.1331 116.926 20.1331C121.676 20.1331 125.15 23.3482 125.726 27.6261H121.101C120.552 25.8797 119.076 24.5381 116.926 24.5381C114.176 24.5381 112.301 26.6647 112.301 29.4237C112.301 32.1828 114.201 34.3351 116.926 34.3351C119.076 34.3351 120.576 33.0191 121.076 31.247H125.751C125.126 35.6018 121.676 38.7401 116.926 38.7401C111.527 38.7401 107.477 34.7153 107.477 29.4237Z" fill="#8A0538"/>
<path d="M128.001 38.5372V20.335H134.751C138.551 20.335 141.376 22.9935 141.376 26.5879C141.376 30.1822 138.551 32.7649 134.751 32.7649H132.626V38.5372H128.001ZM132.626 28.4112H134.676C135.926 28.4112 136.65 27.6015 136.65 26.5633C136.65 25.525 135.9 24.6898 134.676 24.6898H132.626V28.4112Z" fill="#8A0538"/>
<path d="M143.45 38.5372V20.335H150.1C153.849 20.335 156.699 23.0181 156.699 26.4362C156.699 28.6643 155.475 30.5378 153.574 31.575L156.924 38.5372H151.899L149.224 32.4616H148.049V38.5372H143.449H143.45ZM148.05 28.5628H149.875C151.225 28.5628 152.075 27.7276 152.075 26.512C152.075 25.2965 151.2 24.5124 149.851 24.5124H148.051V28.5628H148.05Z" fill="#8A0538"/>
<path d="M79.836 52.4L79.8907 53.1707C79.914 53.4064 79.9221 53.5653 79.9221 53.6473L79.7814 53.6739C79.5567 53.1615 79.2774 52.7781 78.9484 52.5178C78.6145 52.2626 78.2066 52.1335 77.7279 52.1335C77.1399 52.1335 76.6814 52.2083 76.3565 52.3528C75.8829 52.5598 75.477 52.9165 75.139 53.4249C74.802 53.9394 74.6319 54.5522 74.6319 55.2717C74.6319 55.6878 74.6937 56.0629 74.8172 56.3919C74.9426 56.725 75.1147 57.0304 75.3424 57.3195C75.5671 57.6054 75.8353 57.8545 76.1399 58.0615C76.3403 58.2019 76.5812 58.3044 76.8595 58.3772C77.0134 58.4161 77.2482 58.4346 77.5599 58.4346C77.7592 58.4346 77.9839 58.4079 78.2278 58.3464C78.4707 58.29 78.6539 58.2132 78.7744 58.1148C78.8988 58.0236 78.9828 57.9108 79.0294 57.7858C79.0719 57.6659 79.0962 57.4302 79.0962 57.0776C79.0962 56.4954 79.0577 56.1531 78.9808 56.0568C78.9029 55.9553 78.662 55.8979 78.2552 55.8651L78.0558 55.8508L77.9212 55.8549C77.8979 55.8508 77.8736 55.8477 77.8392 55.8436L77.7613 55.7134C77.7613 55.7001 77.7785 55.6766 77.7987 55.6479C77.9738 55.6202 78.3503 55.6069 78.9322 55.6069C79.0618 55.6069 79.2723 55.612 79.5688 55.6151L80.082 55.6397L80.5506 55.6356C80.6406 55.6356 80.7479 55.6397 80.8754 55.6448C80.9017 55.6479 80.9119 55.652 80.9179 55.6602C80.927 55.6714 80.9281 55.6858 80.9281 55.7032C80.9281 55.7421 80.921 55.7883 80.9058 55.8487C80.7611 55.8795 80.6558 55.8938 80.5779 55.8938L80.253 55.8887C80.1407 55.8887 80.0546 55.9266 79.9868 56.0045C79.9524 56.0435 79.9362 56.1675 79.9362 56.3858L79.9393 57.053C79.9393 57.506 79.9271 57.796 79.8876 57.9221C79.8674 57.9969 79.8239 58.0635 79.7611 58.122C79.6994 58.1814 79.5638 58.2511 79.3624 58.3351C79.0709 58.452 78.8057 58.534 78.5699 58.5709C78.1287 58.6508 77.7006 58.6877 77.2927 58.6877C76.6318 58.6877 76.0883 58.6026 75.6643 58.4325C75.2432 58.2665 74.8799 58.0266 74.5743 57.7233C74.2706 57.4179 74.052 57.1094 73.9215 56.7978C73.7221 56.3407 73.627 55.8774 73.627 55.4019C73.627 54.8105 73.7808 54.2335 74.0885 53.6626C74.3941 53.1 74.8961 52.6367 75.5843 52.2811C76.0681 52.0341 76.7249 51.9121 77.5589 51.9121C78.1317 51.9121 78.6033 51.9562 78.9656 52.0597C79.332 52.1601 79.6235 52.2739 79.837 52.4041L79.836 52.4ZM81.3491 58.4059C81.8339 58.3485 82.1071 58.3075 82.1719 58.2829C82.2144 58.2654 82.2559 58.2203 82.2903 58.1343V58.0748C82.2903 57.9918 82.3065 57.6854 82.3338 57.1596C82.3399 57.011 82.3419 56.8613 82.3419 56.723L82.3257 56.1162L82.3369 55.4347L82.3328 54.1628L82.3369 53.2506C82.3389 52.8663 82.3095 52.6306 82.2488 52.5486C82.1861 52.4604 82.0262 52.3989 81.7731 52.3661C81.511 52.3303 81.3713 52.3016 81.343 52.2872C81.3157 52.2698 81.3025 52.2431 81.3025 52.2083C81.3025 52.1827 81.3086 52.154 81.3197 52.114C81.3521 52.0843 81.43 52.0669 81.5515 52.0669C81.5667 52.0669 81.6122 52.0597 81.6881 52.0525C81.763 52.0443 81.8339 52.0402 81.8986 52.0402H82.3095L83.6293 52.0259C84.3752 52.0259 84.8954 52.0812 85.196 52.1909C85.4925 52.3026 85.7283 52.4943 85.9054 52.7576C86.0825 53.019 86.1726 53.3224 86.1726 53.6462C86.1726 54.2694 85.8477 54.7459 85.2081 55.0678C85.0998 55.1323 85.0097 55.1774 84.949 55.2246C85.0614 55.4695 85.2162 55.7637 85.4207 56.1019L86.0583 57.2057C86.3093 57.6126 86.4854 57.8688 86.5835 57.9713C86.6797 58.0758 86.7991 58.1589 86.9377 58.2286C87.0744 58.2921 87.3082 58.3587 87.6381 58.4223C87.6391 58.454 87.6391 58.4817 87.6391 58.5012C87.6391 58.5237 87.6391 58.5473 87.6381 58.576C87.1796 58.5842 86.6432 58.5842 86.0269 58.5842C85.9844 58.5842 85.9236 58.5842 85.8467 58.576C85.6079 58.1158 85.3326 57.6126 85.0097 57.0561L84.2679 55.6868C84.1687 55.5433 84.0847 55.4542 84.023 55.4183C83.9552 55.3865 83.8691 55.366 83.7629 55.366L83.3398 55.3711L83.1971 55.366C83.19 55.4736 83.183 55.694 83.183 56.0301V57.7643C83.1779 57.8288 83.1931 57.9221 83.2204 58.0318C83.2487 58.0974 83.2953 58.1486 83.358 58.1917C83.4269 58.2286 83.6131 58.288 83.9258 58.3618L84.1282 58.4182C84.1566 58.452 84.1687 58.4971 84.1687 58.5514C84.0786 58.5709 84.0169 58.576 83.9784 58.576C83.6799 58.576 83.4684 58.576 83.3479 58.5657C83.2821 58.5657 83.2305 58.5606 83.1921 58.5606L82.5099 58.5698L81.844 58.5647C81.8136 58.5647 81.6638 58.5698 81.3896 58.5791L81.2914 58.5606L81.2813 58.5104C81.2813 58.4807 81.3005 58.4448 81.3481 58.4048L81.3491 58.4059ZM83.2072 55.0862C83.2963 55.0893 83.3621 55.0934 83.4066 55.0934C83.6485 55.0934 83.9278 55.0667 84.2386 55.0052C84.4612 54.9653 84.6393 54.8915 84.7749 54.788C84.9096 54.6937 85.0259 54.543 85.117 54.3473C85.2091 54.1546 85.2567 53.9517 85.2567 53.7426C85.2567 53.5099 85.1879 53.2711 85.0411 53.0098C84.9268 52.815 84.7446 52.6511 84.4835 52.5209C84.2193 52.3877 83.9046 52.3262 83.5382 52.3262C83.4461 52.3262 83.3317 52.3262 83.189 52.3405C83.1718 52.5147 83.1657 52.6511 83.1657 52.7423L83.1921 53.6903L83.189 54.0808C83.189 54.3452 83.1941 54.6763 83.2072 55.0872V55.0862ZM90.399 52.0484C90.4173 52.1068 90.4233 52.1509 90.4233 52.1827C90.4233 52.2001 90.4183 52.2339 90.4092 52.2698C90.3231 52.2975 90.2533 52.3057 90.1976 52.3057C90.1744 52.3057 90.1379 52.3057 90.0792 52.2975C90.0266 52.2975 89.98 52.2944 89.9477 52.2944C89.7928 52.2944 89.6734 52.3262 89.5843 52.3825C89.5226 52.4256 89.4861 52.4697 89.472 52.5322L89.4214 53.1102L89.4366 55.6222C89.4386 56.5446 89.47 57.1186 89.5256 57.341C89.5853 57.5675 89.6815 57.7509 89.812 57.8955C89.9456 58.043 90.147 58.165 90.4152 58.2572C90.6814 58.3536 90.9456 58.3997 91.1996 58.3997C91.7684 58.3997 92.2026 58.3157 92.5042 58.1496C92.8058 57.9877 93.0213 57.7561 93.1549 57.465C93.2865 57.1729 93.3513 56.7281 93.3513 56.1306C93.3513 56.1132 93.3462 55.9779 93.3371 55.7227V55.5782C93.3371 55.5249 93.3391 55.4183 93.3462 55.2594C93.3533 55.1036 93.3594 55.0104 93.3594 54.9847L93.2835 53.5243C93.2592 53.0323 93.2298 52.7474 93.1984 52.6593C93.166 52.5701 93.1225 52.5065 93.0598 52.4615C92.9323 52.3672 92.6843 52.28 92.3179 52.2083C92.3048 52.1591 92.2926 52.1068 92.2896 52.0587C92.4191 52.0474 92.5497 52.0392 92.6772 52.0392C92.8047 52.0392 92.9474 52.0433 93.0972 52.0587C93.3148 52.072 93.4363 52.0802 93.4565 52.0802L94.25 52.0587H94.4058L94.3967 52.2431C93.9879 52.2964 93.7399 52.3579 93.662 52.4317C93.583 52.5065 93.5415 52.6418 93.5415 52.8355C93.5415 52.9432 93.5486 53.1686 93.5638 53.5191L93.5952 54.5707L93.5921 54.9868L93.6063 55.5146C93.6063 56.1829 93.5871 56.6318 93.5506 56.8726C93.498 57.2047 93.4231 57.4732 93.3229 57.6679C93.2237 57.8688 93.0821 58.041 92.8968 58.1958C92.7056 58.3577 92.4606 58.4868 92.1449 58.5852C91.8342 58.6877 91.5285 58.743 91.2239 58.743C90.7472 58.743 90.4021 58.7051 90.1906 58.6416C89.806 58.5196 89.4993 58.3669 89.2777 58.1783C89.0469 57.9887 88.8911 57.7981 88.804 57.6095C88.6896 57.3584 88.6269 56.9935 88.6269 56.5108V56.1562L88.6127 54.7418L88.6269 53.596V52.8212C88.6269 52.6285 88.6016 52.4891 88.549 52.4102C88.5105 52.3559 88.4569 52.3262 88.3881 52.3262L88.0905 52.3313C87.8729 52.3313 87.7322 52.3057 87.6735 52.2616C87.6624 52.2339 87.6533 52.2083 87.6533 52.1827C87.6533 52.1509 87.6654 52.1263 87.6877 52.1068C87.7241 52.0843 87.7697 52.073 87.8243 52.073H87.9498L88.2868 52.0669H89.0833L90.398 52.0494L90.399 52.0484ZM94.9605 52.0894C95.0202 52.0812 95.0596 52.0771 95.0789 52.0771C95.1912 52.0771 95.3764 52.0812 95.6355 52.0945C95.7762 52.0986 95.8683 52.0986 95.9209 52.0986C95.9907 52.0986 96.1436 52.0945 96.3814 52.0812L97.2356 52.031C97.4593 52.0085 97.7173 51.9972 98.0149 51.9972C98.5381 51.9972 98.9561 52.0771 99.2689 52.2237C99.5796 52.3743 99.8174 52.609 99.9864 52.9288C100.154 53.2516 100.238 53.5724 100.238 53.8912C100.238 54.419 100.053 54.8771 99.6899 55.2604C99.3205 55.6468 98.8286 55.8395 98.2062 55.8395C98.0321 55.8395 97.8854 55.8211 97.773 55.7842C97.6516 55.7514 97.521 55.6817 97.3702 55.5812C97.3044 55.5351 97.267 55.4941 97.2538 55.4419C97.267 55.4183 97.2892 55.4019 97.3095 55.3906C97.355 55.3906 97.4026 55.4019 97.4532 55.4234C97.5696 55.4665 97.7103 55.4818 97.8853 55.4818C98.1505 55.4818 98.4015 55.4193 98.6333 55.285C98.8681 55.1549 99.0442 54.9694 99.1676 54.7255C99.2881 54.4764 99.3478 54.2233 99.3478 53.9568C99.3478 53.6903 99.285 53.4382 99.1596 53.1881C99.033 52.9391 98.864 52.7392 98.6576 52.5916C98.5452 52.5066 98.3631 52.4369 98.1222 52.3784C97.8783 52.3231 97.691 52.2944 97.5605 52.2944C97.1455 52.2944 96.9006 52.3262 96.8237 52.3825L96.8166 52.4574L96.8348 53.0262L96.8287 53.1307C96.8237 53.2209 96.8166 53.3593 96.8166 53.5468C96.8166 54.2386 96.8287 54.6681 96.849 54.8361V55.1231L96.9127 57.4363C96.9127 57.4701 96.9087 57.5347 96.8996 57.628C96.8935 57.7151 96.8895 57.7971 96.8895 57.8637C96.8895 58.0266 96.9016 58.1466 96.9269 58.2316C97.0079 58.2572 97.2447 58.3126 97.6303 58.3997C97.8074 58.4458 97.9107 58.4725 97.9258 58.4786C97.9532 58.4868 97.9734 58.5114 97.9967 58.5432C97.9825 58.5944 97.9663 58.6283 97.943 58.6416C97.9228 58.6539 97.8752 58.6652 97.8145 58.6652C97.7771 58.6652 97.6799 58.6539 97.5342 58.6416C97.2467 58.6078 97.021 58.5955 96.8581 58.5955L95.9796 58.6293L95.4503 58.6139C95.4189 58.6139 95.3238 58.619 95.1608 58.6231L95.1558 58.494L95.8096 58.3638C95.9159 58.3362 95.9796 58.3034 96.0039 58.2757C96.0343 58.2296 96.0535 58.1363 96.0535 57.9979C96.0535 57.9652 96.0565 57.8996 96.0565 57.7971C96.0616 57.7233 96.0616 57.628 96.0616 57.5029C96.0616 57.1042 96.0444 56.2536 96.013 54.955C95.9978 54.3452 95.9928 53.7282 95.9928 53.1V53.0108C95.9928 52.772 95.9553 52.6183 95.8814 52.5537C95.759 52.4369 95.4483 52.3497 94.9554 52.2811C94.9422 52.238 94.9331 52.2114 94.9331 52.1878C94.9331 52.1601 94.9422 52.1273 94.9605 52.0894ZM100.983 55.3209C100.983 54.9725 101.023 54.6681 101.104 54.4006C101.19 54.132 101.324 53.841 101.518 53.5253C101.711 53.2107 101.948 52.9483 102.218 52.7392C102.494 52.526 102.871 52.3405 103.357 52.1796C103.697 52.0669 104.126 52.0084 104.649 52.0084C104.999 52.0084 105.343 52.0597 105.676 52.1509C106.012 52.2472 106.316 52.3774 106.591 52.5496C106.862 52.7156 107.14 52.9749 107.415 53.3306C107.603 53.5724 107.745 53.8307 107.842 54.1136C107.971 54.4836 108.031 54.8628 108.031 55.2574C108.031 55.7012 107.99 56.0722 107.908 56.3673C107.822 56.6605 107.677 56.9495 107.48 57.2375C107.322 57.465 107.05 57.7182 106.67 58.0092C106.415 58.204 106.101 58.3618 105.723 58.4817C105.345 58.6026 104.938 58.6641 104.503 58.6641C104.068 58.6641 103.662 58.6119 103.316 58.5073C102.968 58.4059 102.675 58.2747 102.448 58.122C102.214 57.9713 101.973 57.7499 101.731 57.4537C101.484 57.1627 101.299 56.8408 101.174 56.4821C101.046 56.1275 100.983 55.737 100.983 55.3209ZM104.459 58.4786C104.739 58.4786 105.028 58.4366 105.331 58.3587C105.636 58.2798 105.903 58.1455 106.137 57.96C106.368 57.7796 106.554 57.5675 106.685 57.3359C106.817 57.1001 106.922 56.7927 107 56.4299C107.081 56.0599 107.121 55.6878 107.121 55.3209C107.121 54.8638 107.056 54.4057 106.922 53.9568C106.819 53.6124 106.65 53.3121 106.416 53.0415C106.183 52.772 105.899 52.567 105.57 52.4215C105.238 52.2708 104.89 52.196 104.511 52.196C104.211 52.196 103.912 52.2483 103.622 52.3497C103.333 52.4543 103.091 52.5824 102.905 52.7392C102.719 52.896 102.547 53.1174 102.382 53.4054C102.225 53.6954 102.103 54.0152 102.019 54.3647C101.936 54.7091 101.892 55.0206 101.892 55.285C101.892 55.5628 101.935 55.8805 102.019 56.2382C102.103 56.5959 102.218 56.9034 102.36 57.1627C102.505 57.4209 102.688 57.6546 102.895 57.8534C103.11 58.0584 103.347 58.2111 103.614 58.3167C103.877 58.4243 104.156 58.4797 104.459 58.4797" fill="#787878"/>
<path fill-rule="evenodd" clip-rule="evenodd" d="M111.211 58.5247L111.225 58.1783C111.642 58.127 111.908 58.0389 112.023 57.919C112.098 57.84 112.152 57.6269 112.195 57.2856L112.257 55.4746L112.334 53.6328C112.337 53.5211 112.342 53.4545 112.342 53.4289C112.342 52.9533 112.316 52.6766 112.26 52.5997C112.206 52.528 111.99 52.4532 111.617 52.3835C111.524 52.363 111.449 52.3456 111.394 52.3302C111.385 52.2482 111.384 52.1744 111.384 52.1201V51.9551C111.508 51.952 111.655 51.9428 111.822 51.9428L113.292 51.993C113.322 51.9981 113.372 52.0043 113.43 52.0084L113.662 52.0155C113.717 52.0852 113.776 52.1744 113.834 52.283C113.957 52.5352 114.12 52.897 114.323 53.3725L114.379 53.5098L115.16 55.2337C115.182 55.2747 115.21 55.3342 115.247 55.4141C115.299 55.5309 115.349 55.6488 115.406 55.7554C115.458 55.8681 115.513 55.988 115.574 56.1223C115.638 56.2525 115.688 56.3724 115.735 56.4728C115.783 56.3908 115.83 56.3037 115.874 56.2043C116.01 55.8948 116.135 55.6088 116.265 55.3434C116.486 54.8801 116.787 54.1781 117.166 53.228C117.225 53.0753 117.324 52.8478 117.466 52.5434C117.601 52.2308 117.679 52.0709 117.692 52.0535C117.72 52.0278 117.782 52.0135 117.873 52.0135C117.906 52.0135 117.957 52.0094 118.026 52.0094C118.202 51.9961 118.414 51.9858 118.655 51.9817C119.005 51.9776 119.286 51.9694 119.498 51.95C119.714 51.9315 119.833 51.9223 119.859 51.9223C119.894 51.9223 119.933 51.9264 119.98 51.9305C119.983 51.9766 119.983 52.0186 119.983 52.0412L119.975 52.1939C119.975 52.2277 119.975 52.2738 119.971 52.3333C119.652 52.3794 119.397 52.4491 119.201 52.5464C119.064 52.6161 118.997 52.6992 118.997 52.8016V52.8795L119.081 54.4333C119.092 54.5727 119.118 55.2839 119.163 56.5569C119.174 56.8397 119.196 57.1964 119.23 57.6381C119.236 57.6914 119.24 57.7375 119.24 57.7652C119.245 57.8472 119.258 57.8964 119.291 57.921C119.325 57.9456 119.625 58.0409 120.193 58.2162C120.197 58.2736 120.198 58.3094 120.198 58.3371C120.198 58.4119 120.197 58.4826 120.193 58.5503C120.104 58.5503 119.874 58.537 119.51 58.496C119.147 58.4529 118.804 58.4365 118.483 58.4365C117.998 58.4365 117.529 58.4519 117.069 58.496C117.01 58.5052 116.951 58.5093 116.893 58.5134L116.904 58.1629C117.043 58.1065 117.223 58.0583 117.451 58.0235C117.61 57.9968 117.714 57.9487 117.757 57.8851C117.8 57.8236 117.823 57.6443 117.823 57.3481C117.823 57.2374 117.82 57.139 117.817 57.0519C117.8 56.6942 117.79 56.2043 117.785 55.574L117.701 53.7753C117.691 53.5201 117.678 53.3438 117.665 53.2505L116.416 56.1541C116.386 56.2197 116.341 56.3211 116.282 56.4462C116.206 56.6122 116.151 56.729 116.127 56.7875C115.867 57.4157 115.688 57.8944 115.586 58.2285C115.559 58.3105 115.519 58.4232 115.465 58.5616L115.078 58.5513L114.809 57.7744C114.727 57.5705 114.59 57.2651 114.399 56.8479C114.282 56.605 114.195 56.4134 114.13 56.2637C114.1 56.2043 114.075 56.1592 114.068 56.1254L114.004 55.9993C113.999 55.9788 113.997 55.9634 113.987 55.9501L113.242 54.3195L112.786 53.3254L112.741 55.7318L112.709 57.2927C112.709 57.551 112.757 57.7334 112.853 57.8431C112.951 57.9538 113.152 58.0471 113.469 58.125L113.71 58.1864V58.5605C113.511 58.5554 113.305 58.5431 113.082 58.5134C112.863 58.4908 112.564 58.4765 112.198 58.4765C112.12 58.4765 111.79 58.4908 111.208 58.5226L111.211 58.5247ZM120.243 58.5226H120.335C120.56 58.5226 120.795 58.5052 121.042 58.4662L121.249 58.4263C122.034 58.4837 122.527 58.5134 122.738 58.5134C122.744 58.4734 122.748 58.4375 122.748 58.3935C122.748 58.3474 122.747 58.2643 122.741 58.1393C122.531 58.1106 122.413 58.0911 122.379 58.084C122.167 58.0573 122.02 58.0153 121.941 57.9477C121.895 57.9118 121.873 57.8462 121.873 57.758C121.873 57.6935 121.904 57.5736 121.968 57.3963C122.191 56.7577 122.339 56.3601 122.41 56.1982L124.326 56.2022L124.721 57.1954L124.921 57.6996C124.938 57.7427 124.946 57.7888 124.946 57.837C124.946 57.88 124.929 57.92 124.899 57.9528C124.868 57.9774 124.771 58.0081 124.606 58.0542L124.046 58.1741C124.034 58.2838 124.032 58.3976 124.032 58.5165L124.28 58.5072L125.133 58.4642C125.25 58.4509 125.442 58.4468 125.702 58.4468C125.942 58.4468 126.213 58.4642 126.509 58.4847C126.804 58.5072 127.079 58.5206 127.33 58.5206C127.332 58.4703 127.332 58.4355 127.332 58.4099C127.332 58.3535 127.324 58.2715 127.305 58.1608C127.148 58.1004 127.002 58.0563 126.865 58.0389C126.733 58.0245 126.635 57.9886 126.574 57.9374C126.541 57.9189 126.489 57.8359 126.424 57.6924C126.298 57.428 126.207 57.2179 126.149 57.0396C126.029 56.7198 125.938 56.4831 125.873 56.3232C125.758 56.0577 125.624 55.7154 125.467 55.3003C125.306 54.8781 125.13 54.4466 124.933 54.0038L124.06 51.91L124.018 51.8188H123.47L122.279 54.9775L121.266 57.6699C121.186 57.8216 121.117 57.919 121.062 57.961C121.006 58.0009 120.851 58.0491 120.595 58.1004C120.431 58.1291 120.322 58.1567 120.258 58.1741L120.246 58.5206L120.243 58.5226ZM122.608 55.6673L123.334 53.6995C123.435 53.9147 123.56 54.217 123.724 54.6147C123.884 55.0185 124.017 55.37 124.118 55.6744L123.989 55.6796C123.847 55.6796 123.389 55.6744 122.608 55.6652V55.6673ZM127.549 58.2121C127.539 58.2746 127.535 58.333 127.535 58.3689C127.535 58.3914 127.539 58.4468 127.545 58.5308H127.76C127.933 58.5308 128.129 58.5206 128.34 58.4939L129.031 58.4468C129.07 58.4468 129.133 58.4437 129.219 58.4437C129.353 58.4437 129.78 58.4744 130.5 58.5411L130.703 58.5308C130.722 58.5308 130.761 58.5359 130.825 58.5359C130.838 58.4509 130.845 58.3279 130.845 58.1619C130.655 58.0829 130.434 58.0225 130.17 57.9651C130.019 57.9343 129.898 57.8923 129.802 57.838L129.834 56.8787L129.811 55.7482C129.811 55.6191 129.813 55.4992 129.825 55.4018C129.984 55.3946 130.1 55.3885 130.165 55.3885C130.411 55.3885 130.585 55.4254 130.685 55.4951C130.75 55.5412 130.865 55.7308 131.037 56.0588C131.395 56.7782 131.644 57.2999 131.795 57.6351C131.849 57.7591 131.949 57.9477 132.092 58.2039L132.259 58.537C132.312 58.5277 132.388 58.5226 132.476 58.5124C132.67 58.4898 132.792 58.4755 132.826 58.4755L133.329 58.4837C133.483 58.4837 133.616 58.4908 133.725 58.5093H133.93L134.193 58.5431L134.293 58.538H134.43C134.432 58.4919 134.434 58.4498 134.434 58.4232C134.434 58.374 134.425 58.3248 134.404 58.2695C134.324 58.2151 134.207 58.1537 134.057 58.0983C133.864 58.0235 133.735 57.9589 133.676 57.8974C133.611 57.839 133.478 57.6361 133.278 57.2897L132.479 55.9686C132.392 55.8261 132.277 55.6529 132.137 55.45C132.069 55.3567 132.017 55.2747 131.975 55.2009C132.429 55.0626 132.765 54.8494 132.988 54.5706C133.2 54.2877 133.313 53.9792 133.313 53.638C133.313 53.1778 133.11 52.7729 132.703 52.4204C132.302 52.0688 131.754 51.8864 131.066 51.8864C130.634 51.8864 130.217 51.91 129.826 51.952L129.199 51.9797L128.934 51.993C128.914 51.993 128.784 51.9838 128.541 51.9633C128.309 51.9633 128.152 51.9715 128.077 51.9715C127.933 51.9715 127.781 51.9838 127.616 52.0114L127.596 52.0678L127.606 52.3732C127.693 52.3876 127.876 52.405 128.143 52.4235L128.442 52.4839C128.459 52.6766 128.466 53.1306 128.466 53.8358C128.466 54.1596 128.463 54.5009 128.453 54.873L128.442 55.1476L128.453 55.6222L128.433 56.2299L128.438 57.3635C128.438 57.6412 128.433 57.8072 128.423 57.8534C128.423 57.8841 128.412 57.9323 128.398 58.002C128.259 58.0542 128.106 58.087 127.933 58.1127C127.767 58.1332 127.632 58.168 127.546 58.2162L127.549 58.2121ZM129.809 54.9222V54.7807C129.81 54.5317 129.814 54.3318 129.823 54.1791L129.819 53.6236L129.832 53.2055L129.823 52.5208L129.832 52.4224C129.945 52.404 130.072 52.3948 130.229 52.3948C130.552 52.3948 130.788 52.4224 130.935 52.4685C131.135 52.5382 131.295 52.6397 131.42 52.7719C131.507 52.8621 131.58 53.0025 131.638 53.1911C131.697 53.3817 131.725 53.5795 131.725 53.7937C131.725 54.1402 131.607 54.4179 131.372 54.6219C131.135 54.8289 130.731 54.9314 130.16 54.9314C130.082 54.9314 129.97 54.9263 129.81 54.9211L129.809 54.9222ZM134.71 58.5288C134.775 58.5236 134.921 58.5144 135.137 58.4919C135.478 58.4601 135.735 58.4416 135.914 58.4416L136.799 58.4498C137.199 58.4919 137.421 58.5144 137.469 58.5236C137.533 58.5339 137.577 58.538 137.6 58.538C137.615 58.538 137.678 58.538 137.782 58.5288C137.806 58.5236 137.841 58.5236 137.883 58.5236C137.887 58.4468 137.888 58.3843 137.888 58.3484C137.888 58.2869 137.88 58.1998 137.87 58.0993C137.693 58.0717 137.593 58.0594 137.566 58.0573C137.395 58.0378 137.213 58.005 137.009 57.9651C136.991 57.9149 136.98 57.8769 136.98 57.8482L136.992 57.6545L136.977 56.6358L136.999 55.9553L136.991 54.6126C136.991 54.3062 136.999 53.8634 137.008 53.2936C136.999 53.1993 136.991 53.0804 136.991 52.938C136.991 52.7719 137.002 52.6397 137.022 52.5516C137.134 52.5106 137.277 52.4634 137.447 52.4235C137.617 52.3825 137.772 52.3353 137.903 52.2892C137.914 52.1959 137.919 52.1221 137.919 52.0678C137.919 52.0217 137.916 51.9622 137.912 51.9069C137.847 51.9069 137.691 51.9182 137.45 51.9325C137.016 51.9602 136.698 51.9745 136.503 51.9745C136.457 51.9745 136.348 51.9704 136.169 51.9622L134.736 51.9069L134.749 52.3507C134.786 52.362 134.844 52.362 134.921 52.3691C135.231 52.3825 135.451 52.4235 135.589 52.489C135.607 52.5618 135.619 52.6182 135.622 52.65L135.632 52.8724L135.66 53.4443L135.646 53.724L135.656 54.4015C135.656 54.42 135.64 54.7653 135.616 55.4387L135.62 55.7113L135.608 56.8756L135.616 57.4711C135.616 57.6607 135.583 57.8052 135.524 57.9107C135.417 57.9692 135.255 58.0266 135.039 58.0768C134.884 58.1137 134.775 58.1424 134.71 58.166V58.5308V58.5288ZM142.612 52.0904C142.3 51.9827 142.048 51.909 141.855 51.8772C141.541 51.8208 141.302 51.788 141.144 51.788C140.399 51.788 139.834 51.9786 139.454 52.3538C139.075 52.734 138.883 53.1891 138.883 53.7302C138.883 53.9967 138.949 54.2734 139.088 54.5665C139.225 54.8586 139.415 55.0892 139.651 55.2604C139.89 55.4315 140.315 55.6314 140.932 55.8517C141.545 56.0711 141.925 56.2473 142.063 56.3816C142.3 56.5948 142.413 56.8264 142.413 57.0755C142.413 57.2856 142.349 57.4741 142.216 57.6494C142.08 57.8298 141.906 57.9599 141.689 58.0337C141.473 58.1127 141.276 58.1506 141.092 58.1506C140.892 58.1506 140.702 58.1239 140.526 58.0573C140.357 57.9927 140.204 57.9087 140.078 57.8031C139.956 57.6955 139.837 57.5561 139.734 57.3809C139.687 57.302 139.584 57.0744 139.426 56.6942L138.957 56.7075V56.8982C138.957 56.9924 138.959 57.1493 138.966 57.3665C138.985 57.798 138.993 58.0286 138.993 58.0645V58.1239C139.004 58.1731 139.021 58.2059 139.037 58.2182C139.081 58.2582 139.185 58.2971 139.352 58.3443L139.956 58.5247C140.281 58.5903 140.559 58.6282 140.794 58.6282C141.149 58.6282 141.441 58.5944 141.666 58.5349C141.893 58.4755 142.11 58.373 142.323 58.2387C142.534 58.1004 142.689 57.9804 142.79 57.878C142.932 57.7355 143.032 57.5807 143.095 57.4147C143.213 57.1093 143.271 56.7936 143.271 56.4738C143.271 56.1838 143.231 55.9378 143.16 55.7441C143.085 55.5494 142.944 55.3444 142.744 55.1364C142.593 54.9734 142.372 54.8268 142.082 54.6936C141.794 54.5583 141.545 54.4609 141.343 54.4015C140.732 54.2201 140.334 54.0264 140.145 53.8276C139.957 53.6298 139.865 53.4207 139.865 53.2014C139.865 52.9441 139.957 52.7258 140.149 52.5526C140.344 52.3773 140.601 52.2902 140.932 52.2902C141.263 52.2902 141.574 52.4245 141.831 52.6981C141.977 52.8529 142.128 53.1614 142.27 53.6093L142.334 53.6175L142.694 53.6421L142.745 53.6287C142.756 53.5539 142.763 53.4873 142.763 53.434C142.763 53.2352 142.745 52.9677 142.706 52.6141C142.676 52.3835 142.647 52.2072 142.613 52.0914L142.612 52.0904ZM144.157 51.663C144.13 51.7255 144.094 51.8598 144.04 52.0555C143.855 52.7114 143.712 53.1491 143.61 53.3735C143.649 53.4238 143.752 53.4873 143.906 53.5724C143.945 53.5724 144.007 53.516 144.089 53.4094C144.38 53.0292 144.593 52.7986 144.737 52.7145C144.843 52.6592 145.054 52.6243 145.37 52.6243C145.943 52.6243 146.279 52.6325 146.384 52.6479C146.416 52.651 146.439 52.6602 146.454 52.6766C146.47 52.6889 146.482 52.7125 146.493 52.7453C146.511 52.8529 146.52 53.1757 146.52 53.7025L146.548 55.6283C146.548 56.5118 146.535 57.1646 146.512 57.5684C146.504 57.675 146.483 57.758 146.452 57.8226C146.318 57.8944 146.074 57.9681 145.729 58.0553C145.524 58.1014 145.386 58.1752 145.312 58.2715V58.3125L145.317 58.4293C145.32 58.456 145.324 58.4939 145.329 58.5462C145.385 58.5462 145.507 58.5411 145.697 58.5257C146.187 58.4867 146.482 58.4693 146.581 58.4693C147.214 58.4693 147.652 58.4765 147.893 58.5052C148.135 58.5257 148.426 58.5411 148.771 58.5411C148.82 58.5411 148.878 58.5411 148.953 58.5359C148.964 58.4765 148.971 58.4345 148.971 58.4027C148.971 58.3761 148.96 58.3043 148.944 58.1793C148.863 58.1516 148.776 58.126 148.675 58.1004C148.452 58.044 148.328 58.0225 148.302 58.0184C148.158 57.9938 148.056 57.9763 148.006 57.9517C147.964 57.8318 147.943 57.6566 147.943 57.426L147.948 56.7618L147.932 55.1487V53.6513L147.925 52.9718C147.925 52.8877 147.936 52.7822 147.953 52.6489C148.094 52.6346 148.21 52.6254 148.305 52.6254C148.936 52.6254 149.289 52.6336 149.373 52.652C149.426 52.6664 149.475 52.694 149.513 52.7401C149.543 52.7699 149.604 52.9082 149.706 53.1583C149.809 53.4074 149.905 53.597 149.99 53.7322C150.094 53.721 150.216 53.6923 150.352 53.6462C150.366 53.5877 150.372 53.5088 150.372 53.4217L150.379 53.1624L150.372 52.7084C150.372 52.2359 150.37 51.8854 150.365 51.6517C150.3 51.6507 150.252 51.6445 150.217 51.6445L149.995 51.6517C149.969 51.7091 149.955 51.7501 149.94 51.7788C149.89 51.9131 149.844 51.9961 149.799 52.0299L149.505 52.0719H147.952L146.819 52.0688L146.21 52.0719L146.107 52.0801C145.906 52.0832 145.678 52.0832 145.418 52.0832C145.006 52.0832 144.775 52.0801 144.731 52.0719C144.684 52.0186 144.609 51.911 144.516 51.746C144.505 51.7286 144.491 51.7019 144.467 51.6661H144.157V51.663ZM149.794 58.5247H149.882C150.107 58.5247 150.346 58.5072 150.593 58.4683L150.799 58.4283C151.582 58.4857 152.079 58.5154 152.286 58.5154C152.294 58.4755 152.297 58.4396 152.297 58.3955C152.297 58.3494 152.294 58.2664 152.292 58.1414C152.086 58.1127 151.963 58.0932 151.935 58.086C151.717 58.0594 151.57 58.0173 151.49 57.9497C151.444 57.9138 151.423 57.8482 151.423 57.7601C151.423 57.6955 151.454 57.5756 151.516 57.3983C151.742 56.7598 151.887 56.3621 151.958 56.2002L153.876 56.2043L154.268 57.1974L154.467 57.7017C154.483 57.7447 154.492 57.7908 154.492 57.839C154.492 57.8821 154.478 57.922 154.442 57.9548C154.417 57.9794 154.319 58.0102 154.154 58.0563L153.595 58.1762C153.587 58.2859 153.579 58.3996 153.579 58.5185L153.826 58.5093L154.679 58.4662C154.797 58.4529 154.99 58.4488 155.252 58.4488C155.491 58.4488 155.757 58.4662 156.058 58.4867C156.357 58.5093 156.627 58.5226 156.877 58.5226C156.879 58.4724 156.881 58.4375 156.881 58.4119C156.881 58.3556 156.872 58.2736 156.856 58.1629C156.697 58.1024 156.551 58.0583 156.413 58.0409C156.281 58.0266 156.184 57.9907 156.12 57.9394C156.087 57.921 156.037 57.838 155.972 57.6945C155.846 57.4301 155.753 57.22 155.695 57.0416C155.575 56.7219 155.484 56.4851 155.419 56.3252C155.307 56.0598 155.17 55.7175 155.013 55.3024C154.855 54.8801 154.678 54.4487 154.477 54.0059L153.607 51.912L153.562 51.8208H153.016L151.828 54.9795L150.814 57.672C150.735 57.8236 150.663 57.921 150.609 57.963C150.551 58.003 150.397 58.0512 150.141 58.1024C149.979 58.1311 149.868 58.1588 149.803 58.1762L149.793 58.5226L149.794 58.5247ZM152.156 55.6693L152.883 53.7015C152.984 53.9167 153.113 54.2191 153.276 54.6167C153.436 55.0205 153.568 55.3721 153.67 55.6765L153.541 55.6816C153.402 55.6816 152.939 55.6765 152.156 55.6673" fill="#787878"/>
<path d="M156.999 44.8176H73.7422V45.3014H156.999V44.8176Z" fill="#787878"/>
</g>
<defs>
<clipPath id="clip0_11029_1135">
<rect width="157" height="65" fill="white"/>
</clipPath>
</defs>
</svg>
